<svg xmlns="http://www.w3.org/2000/svg" width="652" height="680" viewBox="0 0 652 680">
<defs>
  <filter id="smooth" x="-2%" y="-2%" width="104%" height="104%" color-interpolation-filters="sRGB">
    <feGaussianBlur stdDeviation="1.5" result="blur"/>
    <feColorMatrix type="matrix" values="1 0 0 0 0  0 1 0 0 0  0 0 1 0 0  0 0 0 22 -10" in="blur"/>
  </filter>
</defs>
<g filter="url(#smooth)">
<path d="M 541.17 551.35 C539.01,553.30 532.57,553.40 529.17,551.52 C525.82,549.67 520.00,543.83 520.00,542.32 C520.00,541.61 518.31,539.46 516.25,537.54 C512.54,534.09 512.41,534.05 503.31,534.03 C498.23,534.01 493.84,534.45 493.50,535.00 C492.73,536.25 486.73,536.32 485.45,535.08 C484.93,534.58 483.38,534.02 482.00,533.83 C480.32,533.61 479.40,532.78 479.19,531.31 C478.99,529.95 478.05,529.01 476.69,528.81 C475.32,528.62 474.55,527.84 474.64,526.75 C474.72,525.67 474.08,525.00 472.95,525.00 C471.94,525.00 470.84,524.55 470.50,524.00 C470.16,523.45 469.01,523.00 467.94,523.00 C466.87,523.00 466.00,522.55 466.00,522.00 C466.00,520.68 462.69,520.71 461.36,522.04 C460.75,522.65 456.65,522.96 451.41,522.79 C443.20,522.52 442.48,522.33 442.20,520.38 C442.03,519.21 442.81,516.74 443.94,514.88 C445.06,513.02 446.38,510.58 446.88,509.46 C447.38,508.34 448.51,506.82 449.40,506.09 C450.81,504.91 451.00,500.67 451.00,469.94 C451.00,447.80 451.36,434.89 452.00,434.50 C452.55,434.16 453.00,432.78 453.00,431.44 C453.00,429.69 452.45,429.00 451.06,429.00 C449.99,429.00 448.84,429.45 448.50,430.00 C448.15,430.56 443.32,431.00 437.44,431.00 L 427.00 431.00 L 427.00 436.94 C427.00,440.21 426.55,443.16 426.00,443.50 C425.45,443.84 425.00,445.15 425.00,446.40 C425.00,447.66 424.10,449.50 423.00,450.50 C421.90,451.50 421.00,453.11 421.00,454.10 C421.00,455.08 420.55,456.16 420.00,456.50 C419.45,456.84 419.00,458.82 419.00,460.90 C419.00,463.42 418.33,465.30 417.00,466.50 C415.90,467.50 415.00,468.86 415.00,469.53 C415.00,470.20 414.29,471.35 413.42,472.07 C412.55,472.79 410.60,475.88 409.08,478.94 C406.75,483.66 406.51,484.85 407.53,486.79 C409.65,490.85 413.26,493.98 418.94,496.69 C422.00,498.14 425.74,500.47 427.25,501.85 C429.72,504.12 430.00,505.05 430.00,510.98 C430.00,517.32 429.84,517.75 426.21,521.30 C422.60,524.82 422.09,525.00 415.71,525.00 C412.02,525.00 409.00,524.58 409.00,524.07 C409.00,523.56 407.99,523.00 406.75,522.82 C404.81,522.54 404.46,521.81 404.19,517.53 C403.83,511.89 402.70,510.01 399.63,509.97 C397.19,509.94 391.00,504.70 391.00,502.67 C391.00,501.92 390.10,500.50 389.00,499.50 C387.02,497.71 387.00,497.75 387.00,504.29 C387.00,507.91 387.45,511.16 388.00,511.50 C388.55,511.84 389.00,512.99 389.00,514.06 C389.00,515.13 389.45,516.00 390.00,516.00 C391.43,516.00 391.24,525.60 389.75,528.26 C386.70,533.72 386.11,534.00 377.63,534.00 L 369.58 534.00 L 365.29 529.79 C361.44,526.01 361.00,525.10 361.00,520.86 C361.00,516.73 361.40,515.83 364.24,513.61 C367.40,511.14 367.46,510.93 367.15,504.15 C366.95,499.91 367.25,496.96 367.92,496.55 C368.51,496.18 369.00,494.78 369.00,493.44 C369.00,488.68 364.90,490.40 356.93,498.50 L 349.56 506.00 L 343.70 506.00 C338.67,506.00 337.09,505.50 332.57,502.50 C329.67,500.58 326.78,499.00 326.15,499.00 C324.97,499.00 324.92,498.81 324.60,493.18 C324.42,489.83 326.53,484.13 328.46,482.77 C329.03,482.36 333.48,482.02 338.34,482.02 C345.66,482.00 347.62,481.65 349.73,480.00 C351.13,478.90 353.26,478.00 354.48,478.00 C355.70,478.00 357.50,477.10 358.50,476.00 C359.50,474.90 360.85,474.00 361.50,474.00 C362.15,474.00 363.49,473.11 364.48,472.03 C365.46,470.94 367.18,469.76 368.31,469.40 C371.34,468.44 374.37,465.35 373.07,464.54 C372.47,464.17 371.73,464.53 371.43,465.33 C371.02,466.40 369.82,466.65 366.95,466.27 C363.93,465.86 362.89,466.11 362.41,467.37 C361.97,468.52 360.54,469.00 357.52,469.00 C354.94,469.00 352.75,469.60 352.00,470.50 C351.12,471.56 348.78,472.00 343.94,472.00 C340.19,472.00 336.84,472.45 336.50,473.00 C336.14,473.59 330.18,474.00 322.00,474.00 C313.82,474.00 307.86,473.59 307.50,473.00 C307.16,472.45 303.29,472.00 298.91,472.00 C292.75,472.00 290.81,471.66 290.36,470.50 C289.99,469.53 288.44,469.00 285.95,469.00 C283.84,469.00 281.84,468.55 281.50,468.00 C281.16,467.45 279.36,467.00 277.50,467.00 C275.64,467.00 273.84,466.55 273.50,466.00 C273.16,465.45 272.11,465.00 271.16,465.00 C270.22,465.00 268.79,464.10 268.00,463.00 C267.21,461.90 266.00,461.00 265.31,461.00 C264.62,461.00 262.46,460.10 260.50,459.00 C258.54,457.90 256.15,457.00 255.18,457.00 C254.21,457.00 251.43,454.98 249.00,452.50 C246.57,450.02 244.23,448.00 243.79,448.00 C241.85,448.00 243.28,452.70 246.12,455.62 C247.83,457.39 249.75,459.88 250.39,461.15 C251.02,462.42 252.54,463.96 253.76,464.57 C254.99,465.18 256.81,466.43 257.82,467.34 C258.83,468.25 260.07,469.00 260.58,469.00 C261.09,469.00 262.81,470.13 264.41,471.50 C266.00,472.88 268.08,474.00 269.02,474.00 C269.96,474.00 271.85,474.88 273.22,475.96 C275.24,477.55 277.59,477.98 285.53,478.21 C295.25,478.50 295.36,478.53 297.10,481.50 C298.06,483.15 298.89,486.38 298.93,488.68 C298.99,492.55 298.67,493.08 294.45,495.93 C291.95,497.62 289.53,499.00 289.07,499.00 C288.62,499.00 287.68,499.67 287.00,500.50 C286.15,501.53 283.87,502.00 279.74,502.00 L 273.73 502.00 L 266.27 494.50 C261.11,489.30 258.08,487.00 256.41,487.00 C254.52,487.00 254.00,487.53 254.00,489.44 C254.00,490.78 254.45,492.16 255.00,492.50 C255.55,492.84 256.00,496.27 256.00,500.12 C256.00,506.68 256.19,507.29 259.00,509.65 C261.46,511.72 262.00,512.94 262.00,516.38 C262.00,520.01 261.41,521.16 257.71,524.79 L 253.42 529.00 L 236.20 529.00 L 234.10 524.97 C231.32,519.63 231.45,514.50 234.51,509.15 C237.08,504.66 238.01,495.74 236.04,494.52 C235.51,494.19 233.98,495.63 232.66,497.71 C229.42,502.79 226.03,505.75 223.00,506.16 C220.81,506.46 220.46,507.06 220.18,510.98 C220.01,513.44 219.40,516.02 218.83,516.71 C216.75,519.21 211.57,521.00 206.38,521.00 C201.84,521.00 200.55,520.54 197.44,517.82 L 193.81 514.63 L 194.16 505.81 L 194.50 497.00 L 187.75 497.00 C183.92,497.00 181.00,496.57 181.00,496.00 C181.00,494.42 178.37,494.83 174.50,497.00 C172.54,498.10 170.28,499.00 169.47,499.00 C168.64,499.00 168.00,499.92 168.00,501.09 C168.00,502.31 167.20,503.40 166.09,503.69 C165.04,503.96 163.96,505.04 163.69,506.09 C163.27,507.67 162.26,508.00 157.76,508.00 C149.08,508.00 140.43,513.05 137.29,519.95 C135.43,524.04 131.15,529.00 129.49,529.00 C128.86,529.00 127.29,530.12 126.00,531.50 C124.08,533.54 122.70,534.00 118.48,534.00 C111.11,534.00 110.00,532.46 110.00,522.17 C110.00,514.67 109.84,514.00 108.00,514.00 C106.90,514.00 106.00,514.43 106.00,514.95 C106.00,515.48 104.43,516.65 102.50,517.57 C100.57,518.48 99.00,519.63 99.00,520.11 C99.00,521.34 83.26,521.23 82.50,520.00 C82.16,519.45 80.85,519.00 79.60,519.00 C78.34,519.00 76.57,518.18 75.65,517.17 C73.73,515.05 73.45,508.95 75.20,507.20 C76.13,506.27 75.82,506.00 73.78,506.00 C72.18,506.00 69.95,504.79 68.08,502.92 C65.41,500.26 65.00,499.13 65.00,494.54 C65.00,490.39 65.38,489.10 66.75,488.61 C67.71,488.26 71.83,486.18 75.90,483.99 C82.29,480.54 84.16,480.00 89.59,480.00 C93.05,480.00 96.16,479.55 96.50,479.00 C96.84,478.45 99.31,478.00 102.00,478.00 C104.69,478.00 107.16,477.55 107.50,477.00 C107.84,476.45 109.86,476.00 112.00,476.00 C114.14,476.00 116.16,475.55 116.50,475.00 C116.84,474.45 121.16,474.00 126.09,474.00 C133.76,474.00 135.14,473.75 135.61,472.25 C135.92,471.29 137.03,468.77 138.08,466.66 C139.14,464.54 140.00,461.28 140.00,459.41 C140.00,457.53 140.45,456.00 141.00,456.00 C142.30,456.00 142.30,452.30 141.00,451.50 C140.45,451.16 140.00,448.91 140.00,446.50 C140.00,444.09 139.55,441.84 139.00,441.50 C138.45,441.16 138.00,440.01 138.00,438.94 C138.00,437.87 137.55,437.00 137.00,437.00 C136.45,437.00 136.00,435.23 136.00,433.06 C136.00,430.89 135.55,428.84 135.00,428.50 C134.45,428.16 134.00,427.01 134.00,425.94 C134.00,424.87 133.55,424.00 133.00,424.00 C132.45,424.00 132.00,423.10 132.00,422.00 C132.00,420.90 131.58,420.00 131.07,420.00 C130.07,420.00 127.00,414.40 127.00,412.57 C127.00,411.95 126.10,410.79 125.00,410.00 C123.90,409.21 123.00,407.76 123.00,406.78 C123.00,405.80 122.55,405.00 122.00,405.00 C121.45,405.00 121.00,404.17 121.00,403.15 C121.00,402.14 120.10,400.50 119.00,399.50 C117.90,398.50 117.00,397.07 117.00,396.32 C117.00,395.57 115.88,394.52 114.50,394.00 C113.12,393.48 112.00,392.47 112.00,391.76 C112.00,391.05 106.82,385.31 100.50,379.00 C94.18,372.69 89.00,367.03 89.00,366.42 C89.00,365.81 88.10,364.49 86.99,363.49 C82.65,359.56 82.00,356.51 82.00,339.91 C82.00,330.46 82.40,323.87 83.00,323.50 C83.55,323.16 84.00,321.16 84.00,319.05 C84.00,316.56 84.53,315.01 85.50,314.64 C86.32,314.32 87.00,313.44 87.00,312.69 C87.00,311.93 87.90,310.50 89.00,309.50 C90.10,308.50 91.00,306.86 91.00,305.85 C91.00,304.83 91.65,304.00 92.45,304.00 C93.24,304.00 94.48,302.76 95.20,301.25 C95.93,299.73 97.50,298.36 98.71,298.19 C99.92,298.01 102.26,296.33 103.92,294.44 C105.58,292.55 107.63,291.00 108.47,291.00 C109.31,291.00 110.00,290.55 110.00,290.00 C110.00,289.45 110.87,289.00 111.94,289.00 C113.01,289.00 114.16,288.55 114.50,288.00 C114.84,287.45 116.64,287.00 118.50,287.00 C120.36,287.00 122.16,286.55 122.50,286.00 C122.86,285.42 128.51,285.00 136.06,285.00 C144.02,285.00 149.00,285.38 149.00,286.00 C149.00,286.60 153.15,287.00 159.44,287.00 C165.32,287.00 170.15,287.44 170.50,288.00 C170.84,288.55 172.79,289.00 174.84,289.00 C177.44,289.00 179.00,289.61 180.03,291.05 C181.43,293.00 186.35,296.00 188.16,296.00 C189.65,296.00 202.00,308.73 202.00,310.26 C202.00,311.06 203.12,312.56 204.50,313.60 C205.88,314.63 207.00,316.27 207.00,317.24 C207.00,318.33 207.76,319.00 209.00,319.00 C210.28,319.00 211.00,318.33 211.00,317.15 C211.00,316.14 211.90,314.50 213.00,313.50 C214.10,312.50 215.00,311.17 215.00,310.54 C215.00,309.91 216.57,307.87 218.50,306.00 C220.43,304.13 222.00,302.07 222.00,301.42 C222.00,300.77 222.90,300.00 224.00,299.71 C226.56,299.04 226.75,294.49 224.25,293.63 C223.29,293.30 221.15,292.15 219.50,291.08 C217.85,290.02 215.71,289.11 214.75,289.07 C213.79,289.03 213.00,288.55 213.00,288.00 C213.00,287.45 212.31,287.00 211.47,287.00 C209.37,287.00 196.00,273.75 196.00,271.67 C196.00,270.75 195.55,270.00 195.00,270.00 C194.45,270.00 194.00,268.94 194.00,267.65 C194.00,265.13 191.47,259.41 189.94,258.46 C188.44,257.54 188.85,253.27 190.50,252.64 C191.73,252.17 192.00,249.64 192.00,238.59 C192.00,230.69 192.41,224.86 193.00,224.50 C193.55,224.16 194.00,222.81 194.00,221.50 C194.00,220.19 194.45,218.84 195.00,218.50 C195.55,218.16 196.00,216.59 196.00,215.00 C196.00,213.41 196.45,211.84 197.00,211.50 C198.95,210.30 197.96,206.33 195.00,203.50 C193.35,201.92 192.00,199.86 192.00,198.92 C192.00,197.98 191.32,196.95 190.50,196.64 C189.68,196.32 189.00,194.95 189.00,193.59 C189.00,192.23 188.55,190.84 188.00,190.50 C186.51,189.58 186.69,163.71 188.20,162.20 C189.13,161.27 189.05,161.00 187.80,161.00 C186.93,161.00 184.82,159.43 183.13,157.50 C181.44,155.57 179.46,154.00 178.72,154.00 C175.93,154.00 170.00,145.66 170.00,141.73 C170.00,140.47 169.10,138.79 168.00,138.00 C165.90,136.49 165.24,131.58 167.00,130.50 C168.30,129.69 168.30,118.31 167.00,117.50 C166.45,117.16 166.00,115.11 166.00,112.94 C166.00,110.77 165.55,109.00 165.00,109.00 C164.45,109.00 164.00,108.10 164.00,107.00 C164.00,105.90 163.55,105.00 163.00,105.00 C162.45,105.00 162.00,103.73 162.00,102.17 C162.00,100.45 161.02,98.43 159.50,97.00 C158.12,95.71 157.00,94.12 157.00,93.48 C157.00,92.84 156.10,91.50 155.00,90.50 C153.90,89.50 153.00,88.08 153.00,87.35 C153.00,86.61 152.41,86.00 151.70,86.00 C150.98,86.00 148.87,84.43 147.00,82.50 C145.13,80.57 143.11,79.00 142.49,79.00 C141.88,79.00 140.08,77.65 138.50,76.00 C136.92,74.35 134.97,73.00 134.18,73.00 C133.38,73.00 131.38,71.43 129.74,69.50 C126.87,66.14 126.47,66.00 120.03,66.00 C114.58,66.00 112.97,65.62 111.50,64.00 C110.50,62.90 109.07,62.00 108.31,62.00 C106.64,62.00 97.00,52.23 97.00,50.53 C97.00,49.86 96.08,48.48 94.95,47.46 C93.47,46.11 92.99,44.62 93.20,42.05 C93.47,38.82 93.80,38.47 96.88,38.18 C99.56,37.92 100.92,38.50 103.50,41.00 C109.68,46.99 115.23,49.00 125.61,49.00 C130.71,49.00 135.16,48.55 135.50,48.00 C135.84,47.45 137.89,47.00 140.06,47.00 C142.23,47.00 144.00,46.55 144.00,46.00 C144.00,45.37 150.17,45.00 160.50,45.00 C170.83,45.00 177.00,45.37 177.00,46.00 C177.00,46.55 178.77,47.00 180.94,47.00 C183.11,47.00 185.16,47.45 185.50,48.00 C185.84,48.55 188.24,49.00 190.84,49.00 C194.41,49.00 195.91,49.49 197.00,51.00 C197.79,52.10 199.11,53.00 199.92,53.00 C201.83,53.00 207.00,57.96 207.00,59.79 C207.00,60.56 208.35,62.46 210.00,64.00 C211.65,65.54 213.00,67.56 213.00,68.49 C213.00,69.43 213.86,70.41 214.91,70.69 C215.96,70.96 217.04,72.04 217.31,73.09 C217.60,74.20 218.69,75.00 219.91,75.00 C221.33,75.00 222.00,75.64 222.00,77.00 C222.00,78.25 222.67,79.00 223.78,79.00 C224.76,79.00 226.21,79.90 227.00,81.00 C227.79,82.10 229.16,83.00 230.05,83.00 C230.93,83.00 232.71,84.12 234.00,85.50 C235.29,86.88 236.88,88.00 237.52,88.00 C238.16,88.00 239.50,88.90 240.50,90.00 C241.99,91.64 243.58,92.00 249.46,92.00 C256.57,92.00 258.12,92.51 268.68,98.40 C271.72,100.09 280.00,107.84 280.00,108.99 C280.00,109.51 280.90,111.54 282.00,113.50 C283.10,115.46 284.00,118.01 284.00,119.16 C284.00,120.32 284.86,122.01 285.91,122.93 C286.97,123.84 287.98,125.92 288.16,127.54 L 288.50 130.50 L 297.10 130.79 C303.81,131.01 305.97,130.74 306.95,129.56 C307.95,128.35 309.66,128.17 315.38,128.65 C321.28,129.15 322.78,128.97 323.89,127.63 C325.06,126.22 328.05,126.00 346.00,126.00 C363.73,126.00 366.95,126.23 368.07,127.59 C368.95,128.64 370.31,128.99 372.16,128.62 C373.68,128.31 375.17,128.47 375.48,128.97 C376.35,130.37 382.09,133.00 384.29,133.00 C385.37,133.00 387.09,133.95 388.10,135.12 C390.56,137.95 393.00,136.90 393.00,133.02 C393.00,129.60 394.35,126.80 397.94,122.75 C399.28,121.24 399.99,120.00 399.51,120.00 C398.06,120.00 403.35,114.85 405.75,113.92 C407.06,113.41 408.00,112.20 408.00,111.02 C408.00,109.74 408.66,109.00 409.80,109.00 C410.79,109.00 413.35,107.20 415.50,105.00 C417.65,102.80 419.93,101.00 420.58,101.00 C421.23,101.00 422.32,100.31 423.02,99.48 C423.72,98.64 425.08,98.21 426.06,98.52 C427.03,98.83 428.10,98.64 428.44,98.10 C429.66,96.12 435.43,94.00 439.59,94.00 C441.95,94.00 444.16,93.55 444.50,93.00 C444.87,92.40 451.51,92.00 461.06,92.00 C471.02,92.00 477.00,92.38 477.00,93.00 C477.00,93.55 478.96,94.00 481.35,94.00 C485.53,94.00 491.33,96.11 492.54,98.07 C492.86,98.58 494.16,98.75 495.43,98.43 C496.99,98.04 497.92,98.36 498.33,99.43 C498.67,100.29 499.75,101.00 500.75,101.00 C501.74,101.00 503.21,101.90 504.00,103.00 C504.79,104.10 506.45,105.00 507.69,105.00 C508.93,105.00 511.54,105.90 513.50,107.00 C515.46,108.10 518.17,109.00 519.53,109.00 C520.89,109.00 522.00,109.45 522.00,110.00 C522.00,110.55 523.74,111.00 525.88,111.00 C528.10,111.00 530.29,111.64 531.00,112.50 C532.80,114.67 550.80,114.67 551.64,112.50 C551.95,111.68 553.07,111.00 554.11,111.00 C555.15,111.00 556.00,110.66 556.00,110.24 C556.00,109.83 557.46,108.90 559.25,108.18 C561.04,107.46 563.28,106.45 564.24,105.93 C565.19,105.42 567.55,105.00 569.49,105.00 L 573.00 105.00 L 573.00 114.94 C573.00,120.49 572.56,125.16 572.00,125.50 C571.45,125.84 571.00,127.03 571.00,128.15 C571.00,129.35 570.17,130.40 569.00,130.71 C567.90,131.00 567.00,131.77 567.00,132.42 C567.00,133.85 561.08,139.72 557.83,141.52 C549.52,146.12 545.33,148.00 543.36,148.00 C542.13,148.00 540.84,148.45 540.50,149.00 C540.16,149.55 537.45,150.00 534.47,150.00 C530.91,150.00 527.84,150.69 525.50,152.00 C523.54,153.10 521.05,154.00 519.97,154.00 C517.28,154.00 517.50,155.14 520.80,158.31 C523.00,160.42 524.59,161.00 528.11,161.00 C531.94,161.00 533.11,160.48 536.00,157.50 C538.29,155.14 540.30,154.00 542.20,154.00 L 545.00 154.00 L 545.00 161.50 C545.00,165.62 544.60,169.00 544.11,169.00 C543.63,169.00 542.53,170.46 541.67,172.25 C540.04,175.64 524.16,191.60 520.26,193.76 C519.03,194.44 516.92,195.00 515.57,195.00 C514.22,195.00 512.84,195.45 512.50,196.00 C512.14,196.58 506.67,197.00 499.47,197.00 C488.91,197.00 486.53,196.70 483.50,195.00 C481.54,193.90 478.83,193.00 477.47,193.00 C476.11,193.00 475.00,192.55 475.00,192.00 C475.00,190.31 472.41,190.89 470.50,193.00 C468.88,194.79 467.42,195.00 456.85,195.00 C449.61,195.00 445.00,194.61 445.00,194.00 C445.00,193.45 444.33,193.00 443.50,193.00 C441.10,193.00 441.73,197.40 444.50,200.00 C445.88,201.29 447.00,202.89 447.00,203.55 C447.00,204.21 447.67,205.31 448.48,205.98 C450.57,207.72 453.00,212.89 453.00,215.59 C453.00,216.85 453.45,218.16 454.00,218.50 C454.60,218.87 455.00,225.66 455.00,235.50 C455.00,245.34 454.60,252.13 454.00,252.50 C453.45,252.84 453.00,254.19 453.00,255.50 C453.00,256.81 452.55,258.16 452.00,258.50 C451.45,258.84 451.00,259.91 451.00,260.87 C451.00,261.84 449.65,263.92 448.00,265.50 C446.35,267.08 445.00,268.88 445.00,269.49 C445.00,270.90 439.09,276.50 436.73,277.33 C435.76,277.67 434.54,279.09 434.01,280.47 C433.48,281.86 432.45,283.00 431.73,283.00 C431.00,283.00 427.95,285.47 424.95,288.49 C421.95,291.50 419.02,293.98 418.44,293.99 C417.85,293.99 416.08,295.35 414.50,297.00 C412.92,298.65 410.89,300.00 409.99,300.00 C408.18,300.00 404.00,303.99 404.00,305.71 C404.00,306.31 405.35,309.36 407.00,312.50 C408.65,315.64 410.00,318.83 410.00,319.60 C410.00,320.37 410.45,321.00 411.00,321.00 C411.55,321.00 412.00,322.32 412.00,323.94 C412.00,327.02 413.41,328.76 414.49,327.02 C414.84,326.46 417.54,326.00 420.50,326.00 C423.46,326.00 426.16,325.55 426.50,325.00 C426.84,324.45 428.46,324.00 430.09,324.00 C431.81,324.00 433.31,323.37 433.64,322.50 C433.97,321.64 435.46,321.00 437.11,321.00 C438.70,321.00 440.00,320.55 440.00,320.00 C440.00,319.43 442.98,319.00 446.94,319.00 C450.76,319.00 454.16,318.55 454.50,318.00 C454.84,317.45 456.86,317.00 459.00,317.00 C461.14,317.00 463.16,316.55 463.50,316.00 C463.84,315.45 465.89,315.00 468.06,315.00 C470.23,315.00 472.00,314.55 472.00,314.00 C472.00,313.40 476.15,313.00 482.44,313.00 C488.32,313.00 493.15,312.56 493.50,312.00 C494.33,310.66 520.00,310.66 520.00,312.00 C520.00,312.55 521.77,313.00 523.94,313.00 C526.11,313.00 528.16,313.45 528.50,314.00 C528.84,314.55 529.99,315.00 531.06,315.00 C532.13,315.00 533.00,315.45 533.00,316.00 C533.00,316.55 533.73,317.00 534.62,317.00 C535.50,317.00 537.64,318.50 539.37,320.34 C541.09,322.18 543.29,323.96 544.26,324.31 C545.23,324.66 546.54,326.08 547.17,327.47 C547.80,328.86 549.15,330.00 550.16,330.00 C551.26,330.00 552.00,330.72 552.00,331.78 C552.00,332.76 552.90,334.21 554.00,335.00 C555.10,335.79 556.00,337.22 556.00,338.16 C556.00,339.11 556.45,340.16 557.00,340.50 C557.55,340.84 558.00,342.64 558.00,344.50 C558.00,346.36 558.45,348.16 559.00,348.50 C559.60,348.87 560.00,355.63 560.00,365.41 C560.00,382.10 559.28,385.86 555.48,389.02 C554.67,389.69 554.00,390.80 554.00,391.48 C554.00,392.15 548.60,398.06 542.01,404.60 C535.41,411.15 530.01,417.29 530.01,418.25 C530.00,419.33 529.24,420.00 528.00,420.00 C526.71,420.00 526.00,420.67 526.00,421.88 C526.00,422.91 525.32,424.32 524.48,425.02 C523.65,425.71 522.22,427.90 521.32,429.89 C520.41,431.87 518.81,434.47 517.75,435.65 C514.72,439.05 507.00,455.14 507.00,458.05 C507.00,460.85 504.54,466.55 502.89,467.56 C502.36,467.90 502.02,470.24 502.15,472.77 C502.30,475.64 501.94,477.52 501.20,477.77 C499.60,478.30 499.68,480.49 501.33,481.86 C502.09,482.49 502.48,484.19 502.24,485.82 C501.98,487.58 502.43,489.29 503.41,490.27 C504.28,491.14 505.00,492.56 505.00,493.43 C505.00,494.29 505.42,495.00 505.94,495.00 C506.45,495.00 507.01,496.46 507.19,498.25 C507.48,501.31 507.75,501.52 511.83,501.81 C514.54,502.01 517.05,501.54 518.55,500.56 C520.52,499.27 524.62,499.00 542.41,499.00 C555.64,499.00 564.12,499.38 564.50,500.00 C564.84,500.55 565.76,501.00 566.55,501.00 C567.33,501.00 569.55,502.69 571.49,504.75 C574.65,508.13 574.98,509.00 574.75,513.50 L 574.50 518.50 L 570.75 518.81 C565.17,519.27 566.21,521.00 572.07,521.00 C579.05,521.00 580.00,522.23 580.00,531.22 C580.00,538.57 579.99,538.59 575.71,542.79 C573.35,545.11 570.46,547.00 569.27,547.00 C568.09,547.00 566.84,547.45 566.50,548.00 C566.16,548.55 563.52,549.00 560.63,549.00 C556.18,549.00 554.96,548.57 552.69,546.20 C551.21,544.65 550.00,542.83 550.00,542.15 C550.00,540.88 545.11,536.09 543.75,536.03 C543.34,536.01 543.00,539.08 543.00,542.85 C543.00,548.21 542.60,550.05 541.17,551.35 ZM 412.18 517.17 C415.37,519.62 418.24,519.44 420.90,516.61 C422.50,514.90 423.05,513.27 422.82,510.90 C422.53,507.93 421.79,507.20 415.78,504.00 C407.56,499.63 403.45,495.83 400.90,490.26 C398.76,485.58 398.98,483.12 402.19,476.00 C404.76,470.29 404.86,470.12 408.75,464.55 C411.33,460.86 412.00,458.90 412.00,455.06 C412.00,451.67 412.45,450.04 413.50,449.64 C414.33,449.32 415.00,448.43 415.00,447.65 C415.00,446.87 415.90,446.00 417.00,445.71 C418.58,445.30 419.00,444.35 419.00,441.15 C419.00,438.93 419.45,436.84 420.00,436.50 C420.62,436.12 421.00,427.16 421.00,412.94 C421.00,398.31 420.64,390.00 420.00,390.00 C419.42,390.00 419.00,386.83 419.00,382.50 C419.00,378.17 418.58,375.00 418.00,375.00 C417.45,375.00 417.00,372.81 417.00,370.12 C417.00,366.92 416.46,364.80 415.44,363.95 C414.29,362.99 414.05,361.67 414.53,358.84 C415.00,356.04 414.75,354.61 413.59,353.44 C412.71,352.57 412.00,351.21 412.00,350.43 C412.00,349.64 411.55,349.00 411.00,349.00 C410.45,349.00 410.00,347.68 410.00,346.06 C410.00,344.44 409.55,342.84 409.00,342.50 C408.45,342.16 408.00,339.66 408.00,336.94 C408.00,334.22 407.55,332.00 407.00,332.00 C406.45,332.00 406.00,331.10 406.00,330.00 C406.00,328.90 405.55,328.00 405.00,328.00 C404.45,328.00 403.97,327.21 403.93,326.25 C403.89,325.29 403.01,323.15 401.97,321.50 C400.94,319.85 398.70,315.69 397.00,312.25 C394.12,306.45 393.66,306.00 390.56,306.00 C388.51,306.00 386.99,306.58 386.64,307.50 C386.20,308.63 384.37,309.00 379.09,309.00 C375.26,309.00 371.84,309.45 371.50,310.00 C371.16,310.55 368.69,311.00 366.00,311.00 C363.31,311.00 360.84,311.45 360.50,312.00 C360.16,312.55 358.89,313.00 357.68,313.00 C356.18,313.00 351.44,317.05 342.98,325.54 C336.12,332.43 329.19,338.73 327.60,339.54 C326.00,340.34 322.71,341.00 320.29,341.00 C317.61,341.00 316.12,341.39 316.50,342.00 C316.85,342.57 321.84,343.00 328.06,343.00 C334.69,343.00 339.00,342.61 339.00,342.00 C339.00,341.45 339.75,341.00 340.67,341.00 C342.98,341.00 346.00,338.08 346.00,335.85 C346.00,334.28 346.82,334.00 351.50,334.00 C356.18,334.00 357.00,334.28 357.00,335.85 C357.00,336.86 357.90,338.50 359.00,339.50 C360.47,340.83 361.00,342.58 361.00,346.10 C361.00,348.73 361.45,351.16 362.00,351.50 C362.55,351.84 363.00,353.64 363.00,355.50 C363.00,357.36 363.45,359.16 364.00,359.50 C365.67,360.53 365.18,369.14 363.35,371.17 C361.88,372.79 359.94,373.00 346.35,373.00 C331.67,373.00 331.00,372.91 331.00,371.00 C331.00,369.55 330.33,369.00 328.56,369.00 C327.22,369.00 325.84,368.55 325.50,368.00 C325.16,367.45 323.54,367.00 321.91,367.00 C320.19,367.00 318.69,366.37 318.36,365.50 C318.05,364.67 316.97,364.00 315.98,364.00 C314.98,364.00 313.96,363.44 313.71,362.75 C313.34,361.75 312.98,361.75 311.92,362.75 C311.20,363.44 308.44,364.00 305.80,364.00 C301.67,364.00 301.00,363.72 301.00,362.00 C301.00,360.90 300.62,360.00 300.15,360.00 C299.69,360.00 298.50,360.90 297.50,362.00 C296.50,363.10 295.14,364.00 294.47,364.00 C293.80,364.00 292.68,364.69 291.98,365.52 C291.28,366.36 289.92,366.79 288.94,366.48 C287.97,366.17 286.90,366.36 286.56,366.90 C284.85,369.67 279.38,371.00 269.68,371.00 C258.57,371.00 256.00,369.88 256.00,365.07 C256.00,363.59 255.13,361.81 254.00,361.00 C252.15,359.66 252.00,358.41 252.00,343.78 L 252.00 328.00 L 256.94 328.00 C259.66,328.00 262.16,328.45 262.50,329.00 C262.84,329.55 264.89,330.00 267.06,330.00 C269.23,330.00 271.00,330.45 271.00,331.00 C271.00,331.55 271.87,332.00 272.94,332.00 C274.01,332.00 275.16,332.45 275.50,333.00 C275.84,333.55 277.53,334.00 279.25,334.00 L 282.37 334.00 L 279.69 331.20 C278.21,329.65 277.00,327.94 277.00,327.38 C277.00,326.83 275.65,325.08 274.00,323.50 C272.35,321.92 271.00,319.60 271.00,318.36 C271.00,316.97 268.79,313.74 265.30,310.04 C260.96,305.45 258.92,304.00 256.80,304.00 C255.26,304.00 254.00,303.55 254.00,303.00 C254.00,302.45 252.68,302.00 251.06,302.00 C249.44,302.00 247.84,301.55 247.50,301.00 C247.16,300.45 245.81,300.00 244.50,300.00 C243.19,300.00 241.84,299.55 241.50,299.00 C241.16,298.45 240.15,298.00 239.25,298.00 C237.26,298.00 232.00,302.86 232.00,304.69 C232.00,305.41 231.31,306.00 230.48,306.00 C229.64,306.00 228.56,307.01 228.08,308.25 C227.60,309.49 226.04,311.59 224.61,312.92 C223.17,314.26 222.00,315.87 222.00,316.50 C222.00,317.13 220.88,318.71 219.50,320.00 C218.12,321.29 217.00,322.88 217.00,323.52 C217.00,324.16 216.10,325.50 215.00,326.50 C213.90,327.50 213.00,328.85 213.00,329.50 C213.00,330.15 212.10,331.50 211.00,332.50 C209.90,333.50 209.00,335.08 209.00,336.03 C209.00,336.97 207.43,339.09 205.50,340.74 C203.57,342.38 202.00,344.46 202.00,345.36 C202.00,346.26 201.63,347.00 201.19,347.00 C200.04,347.00 196.00,354.81 196.00,357.04 C196.00,358.05 195.55,359.16 195.00,359.50 C194.45,359.84 194.00,361.26 194.00,362.65 C194.00,364.04 193.11,365.93 192.03,366.84 C190.34,368.26 190.03,369.89 189.89,377.95 C189.78,384.25 190.11,387.54 190.86,387.79 C191.49,388.00 192.00,389.90 192.00,392.02 C192.00,394.15 192.45,396.16 193.00,396.50 C193.55,396.84 194.00,400.66 194.00,405.00 C194.00,409.34 194.45,413.16 195.00,413.50 C195.55,413.84 196.00,416.34 196.00,419.06 C196.00,421.78 196.45,424.00 197.00,424.00 C197.55,424.00 198.00,425.32 198.00,426.94 C198.00,428.56 198.45,430.16 199.00,430.50 C199.55,430.84 200.00,431.92 200.00,432.91 C200.00,434.99 202.69,440.69 204.08,441.55 C204.60,441.87 204.81,442.51 204.53,442.96 C204.25,443.41 204.69,444.33 205.51,445.01 C206.33,445.69 207.00,447.55 207.00,449.15 C207.00,450.88 207.64,452.31 208.58,452.67 C209.44,453.00 210.57,454.22 211.08,455.39 C211.59,456.55 213.58,459.52 215.50,462.00 C217.43,464.48 219.26,467.17 219.58,468.00 C219.90,468.83 221.03,471.23 222.08,473.34 C225.61,480.41 224.21,485.52 216.80,492.62 C214.43,494.88 210.02,498.03 207.00,499.61 C200.64,502.93 200.04,503.58 200.02,507.10 C199.98,512.84 206.76,516.00 211.48,512.44 C213.14,511.19 213.26,510.64 212.23,508.99 C209.99,505.41 210.76,503.16 214.96,501.02 C217.14,499.91 219.53,499.00 220.29,499.00 C223.45,499.00 228.00,491.46 228.00,486.21 C228.00,484.12 228.54,481.86 229.20,481.20 C230.93,479.47 236.04,479.72 238.15,481.64 C240.08,483.38 240.49,482.96 241.20,478.50 C241.68,475.50 249.91,475.16 254.63,477.94 C256.54,479.07 258.65,480.01 259.31,480.02 C259.96,480.03 261.62,480.92 263.00,482.00 C265.53,483.98 269.00,484.67 269.00,483.20 C269.00,481.54 266.50,480.00 263.80,480.00 C262.26,480.00 261.00,479.57 261.00,479.05 C261.00,478.53 258.41,476.43 255.25,474.38 C248.59,470.07 243.00,465.10 243.00,463.49 C243.00,462.88 241.65,461.08 240.00,459.50 C238.35,457.92 237.00,455.63 237.00,454.42 C237.00,453.21 236.32,451.95 235.50,451.64 C233.36,450.82 233.36,436.78 235.50,435.00 C236.32,434.32 237.00,432.26 237.00,430.44 C237.00,428.61 237.45,426.84 238.00,426.50 C239.33,425.68 239.33,405.00 238.00,405.00 C237.45,405.00 237.00,403.71 237.00,402.12 C237.00,400.54 236.30,398.66 235.44,397.95 C234.41,397.09 233.97,395.35 234.15,392.84 C234.30,390.74 233.88,388.48 233.21,387.81 C232.55,387.15 232.00,384.89 232.00,382.81 C232.00,380.10 231.43,378.66 230.00,377.77 C228.34,376.73 228.00,375.44 228.00,370.20 L 228.00 363.87 L 231.25 364.19 C233.88,364.44 234.59,365.01 235.00,367.23 C235.27,368.73 236.29,370.88 237.25,371.99 C238.21,373.11 239.00,375.57 239.00,377.45 C239.00,379.34 239.45,381.16 240.00,381.50 C240.55,381.84 241.00,384.34 241.00,387.06 C241.00,389.78 241.45,392.00 242.00,392.00 C242.55,392.00 243.00,393.32 243.00,394.94 C243.00,396.56 243.45,398.16 244.00,398.50 C245.34,399.33 245.34,429.67 244.00,430.50 C242.06,431.70 242.90,436.01 245.25,436.94 C246.49,437.42 249.98,440.36 253.00,443.46 C258.79,449.38 262.90,452.00 266.43,452.00 C267.60,452.00 269.21,452.90 270.00,454.00 C270.79,455.10 272.24,456.00 273.22,456.00 C274.20,456.00 275.00,456.44 275.00,456.98 C275.00,457.52 276.12,458.24 277.50,458.59 C278.88,458.93 280.00,459.62 280.00,460.11 C280.00,460.60 281.77,461.00 283.94,461.00 C286.11,461.00 288.16,461.45 288.50,462.00 C288.84,462.55 290.89,463.00 293.06,463.00 C295.23,463.00 297.00,463.45 297.00,464.00 C297.00,464.59 300.50,465.00 305.50,465.00 C310.50,465.00 314.00,465.41 314.00,466.00 C314.00,466.58 317.31,467.00 321.94,467.00 C326.31,467.00 330.16,466.55 330.50,466.00 C330.84,465.45 334.21,465.00 338.00,465.00 C341.79,465.00 345.16,464.55 345.50,464.00 C345.84,463.45 348.31,463.00 351.00,463.00 C353.69,463.00 356.16,462.55 356.50,462.00 C356.84,461.45 358.59,461.00 360.38,461.00 C362.58,461.00 364.42,460.18 366.00,458.50 C368.76,455.57 376.00,454.84 376.00,457.50 C376.00,459.41 377.40,459.43 378.97,457.54 C380.94,455.16 380.51,447.90 378.14,443.72 C376.96,441.64 376.00,439.28 376.00,438.47 C376.00,437.66 375.55,437.00 375.00,437.00 C374.45,437.00 374.00,436.10 374.00,435.00 C374.00,433.90 373.55,433.00 373.00,433.00 C372.45,433.00 372.00,430.57 372.00,427.61 C372.00,423.62 371.59,422.06 370.42,421.61 C369.25,421.16 368.92,419.86 369.13,416.50 C369.28,413.97 368.88,411.48 368.20,410.80 C366.67,409.27 366.47,371.00 368.00,371.00 C368.55,371.00 369.00,369.71 369.00,368.12 C369.00,366.54 369.67,364.68 370.50,364.00 C371.33,363.32 372.00,361.69 372.00,360.38 C372.00,358.27 372.45,358.00 376.00,358.00 C379.78,358.00 380.00,358.17 380.00,361.00 C380.00,362.65 379.55,364.00 379.00,364.00 C378.45,364.00 378.00,365.32 378.00,366.94 C378.00,368.56 377.55,370.16 377.00,370.50 C376.45,370.84 376.00,372.19 376.00,373.50 C376.00,374.81 375.55,376.16 375.00,376.50 C374.41,376.86 374.00,382.84 374.00,391.06 C374.00,399.69 374.38,405.00 375.00,405.00 C375.55,405.00 376.00,407.22 376.00,409.94 C376.00,412.66 376.45,415.16 377.00,415.50 C377.55,415.84 378.00,418.34 378.00,421.06 C378.00,423.78 378.45,426.00 379.00,426.00 C379.55,426.00 380.00,426.91 380.00,428.03 C380.00,429.15 380.65,430.31 381.44,430.61 C382.23,430.92 382.63,431.80 382.33,432.57 C382.04,433.35 382.51,434.26 383.40,434.60 C384.28,434.94 385.00,435.83 385.00,436.58 C385.00,437.33 385.90,439.54 387.00,441.50 C389.13,445.28 389.86,456.00 388.00,456.00 C387.45,456.00 387.00,456.73 387.00,457.63 C387.00,458.52 385.54,460.96 383.75,463.04 C381.96,465.12 379.02,468.89 377.22,471.41 C375.39,473.97 373.13,476.00 372.12,476.00 C371.13,476.00 369.50,476.90 368.50,478.00 C367.50,479.10 366.09,480.00 365.35,480.00 C364.62,480.00 363.45,480.90 362.77,482.00 C362.08,483.10 360.48,484.00 359.21,484.00 C357.95,484.00 355.78,485.12 354.41,486.50 C352.10,488.81 351.20,489.00 342.47,489.00 C333.20,489.00 333.03,489.04 332.40,491.55 C332.05,492.95 331.93,494.20 332.13,494.32 C335.79,496.56 341.70,499.00 343.48,499.00 C345.72,499.00 353.00,492.12 353.00,490.00 C353.00,489.45 353.61,489.00 354.36,489.00 C355.11,489.00 357.36,487.89 359.36,486.53 C361.36,485.17 363.00,484.30 363.00,484.59 C363.00,484.89 365.18,483.94 367.84,482.49 C375.46,478.35 380.56,479.33 382.42,485.31 C382.94,486.98 383.16,487.00 385.21,485.56 C387.87,483.70 392.12,483.52 393.80,485.20 C394.46,485.86 395.00,488.15 395.00,490.30 C395.00,495.94 399.70,504.00 403.00,504.00 C405.49,504.00 411.06,506.99 411.71,508.67 C412.01,509.47 411.72,511.31 411.06,512.76 C410.00,515.09 410.13,515.59 412.18,517.17 ZM 529.73 540.24 C531.78,542.34 534.15,543.93 534.98,543.77 C536.81,543.43 537.64,537.24 536.07,535.67 C535.48,535.08 535.00,533.59 535.00,532.35 C535.00,530.76 533.97,529.61 531.50,528.43 C528.69,527.10 528.00,526.20 528.00,523.89 C528.00,521.13 528.21,521.00 532.50,521.00 C534.97,521.00 537.00,521.45 537.00,522.00 C537.00,522.55 537.81,523.00 538.80,523.00 C541.01,523.00 543.00,524.87 543.00,526.96 C543.00,529.05 546.70,531.39 550.98,532.00 C553.20,532.32 554.83,533.27 555.51,534.64 C558.84,541.34 563.47,541.90 569.21,536.30 C571.29,534.26 573.00,531.79 573.00,530.80 C573.00,529.17 571.91,529.00 561.83,529.00 C552.84,529.00 550.30,528.68 548.83,527.35 C547.82,526.43 547.00,525.23 547.00,524.66 C547.00,522.32 542.57,519.00 539.45,519.00 C536.47,519.00 533.36,516.97 534.53,515.80 C534.82,515.52 534.36,514.72 533.52,514.02 C532.69,513.32 532.00,511.69 532.00,510.38 C532.00,508.23 532.43,508.00 536.44,508.00 C538.88,508.00 541.16,508.45 541.50,509.00 C541.84,509.55 543.89,510.00 546.06,510.00 C548.23,510.00 550.00,510.45 550.00,511.00 C550.00,511.55 551.35,512.00 553.00,512.00 C554.65,512.00 556.00,512.45 556.00,513.00 C556.00,513.55 556.90,514.00 558.00,514.00 C559.10,514.00 560.00,513.55 560.00,513.00 C560.00,512.45 560.94,512.00 562.08,512.00 C564.87,512.00 564.07,510.00 560.43,507.87 C558.02,506.45 554.76,506.13 541.95,506.07 C532.48,506.03 526.00,506.40 525.37,507.03 C524.74,507.66 519.67,507.96 512.42,507.78 C500.55,507.50 500.50,507.49 500.17,505.00 C499.98,503.62 499.42,502.07 498.92,501.55 C498.41,501.03 498.00,499.79 498.00,498.80 C498.00,497.81 497.55,497.00 497.00,497.00 C496.45,497.00 496.00,495.23 496.00,493.06 C496.00,490.89 495.55,488.84 495.00,488.50 C494.45,488.16 494.00,484.34 494.00,480.00 C494.00,475.66 494.45,471.84 495.00,471.50 C495.55,471.16 496.00,468.69 496.00,466.00 C496.00,463.31 496.45,460.84 497.00,460.50 C497.55,460.16 498.00,459.01 498.00,457.94 C498.00,456.87 498.45,456.00 499.00,456.00 C499.55,456.00 500.00,454.20 500.00,452.00 C500.00,449.80 500.45,448.00 501.00,448.00 C501.55,448.00 502.00,447.16 502.00,446.12 C502.00,445.09 502.67,443.69 503.49,443.01 C504.31,442.33 504.75,441.41 504.47,440.96 C504.19,440.51 504.43,439.85 504.99,439.51 C505.55,439.16 506.88,436.95 507.95,434.60 C509.02,432.25 510.60,429.75 511.45,429.04 C512.30,428.33 513.00,427.02 513.00,426.12 C513.00,425.22 513.90,423.92 515.00,423.23 C516.10,422.55 517.00,421.09 517.00,419.99 C517.00,418.90 517.42,418.00 517.93,418.00 C518.45,418.00 519.14,417.15 519.47,416.11 C519.80,415.07 520.95,413.98 522.03,413.70 C523.11,413.42 524.00,412.39 524.00,411.42 C524.00,410.44 529.62,404.07 536.50,397.25 C543.38,390.43 549.00,384.23 549.00,383.48 C549.00,382.73 549.42,381.86 549.94,381.54 C550.45,381.22 551.58,379.55 552.44,377.83 C554.23,374.24 554.67,356.53 553.00,355.50 C552.45,355.16 552.00,353.11 552.00,350.94 C552.00,348.77 551.55,347.00 551.00,347.00 C550.45,347.00 550.00,346.28 550.00,345.39 C550.00,344.51 548.88,342.90 547.50,341.82 C546.12,340.74 545.00,339.20 545.00,338.39 C545.00,336.71 538.60,330.00 536.99,330.00 C536.40,330.00 534.69,328.85 533.21,327.44 C531.72,326.04 528.61,324.01 526.31,322.95 C524.01,321.88 521.84,320.55 521.50,320.00 C521.16,319.45 519.11,319.00 516.94,319.00 C514.77,319.00 513.00,318.55 513.00,318.00 C513.00,317.45 510.35,317.00 507.06,317.00 C503.79,317.00 500.84,317.45 500.50,318.00 C500.15,318.57 495.03,319.00 488.55,319.00 C479.85,319.00 477.09,319.32 476.69,320.38 C476.37,321.20 475.22,321.57 473.82,321.31 C472.21,321.00 470.72,321.66 469.07,323.43 C466.79,325.85 466.08,326.00 456.88,326.00 C451.45,326.00 446.84,326.44 446.50,327.00 C446.16,327.55 444.59,328.00 443.00,328.00 C441.41,328.00 439.84,328.45 439.50,329.00 C439.16,329.55 437.81,330.00 436.50,330.00 C435.19,330.00 433.84,330.45 433.50,331.00 C433.16,331.55 431.11,332.00 428.94,332.00 C426.77,332.00 425.00,332.45 425.00,333.00 C425.00,333.55 422.75,334.00 420.00,334.00 C415.34,334.00 413.66,335.05 416.00,336.50 C416.55,336.84 417.00,338.44 417.00,340.06 C417.00,341.68 417.45,343.00 418.00,343.00 C418.55,343.00 419.00,344.35 419.00,346.00 C419.00,347.65 419.45,349.00 420.00,349.00 C420.55,349.00 421.00,350.77 421.00,352.94 C421.00,355.11 421.45,357.16 422.00,357.50 C422.55,357.84 423.00,360.34 423.00,363.06 C423.00,365.78 423.45,368.00 424.00,368.00 C424.58,368.00 425.00,371.17 425.00,375.50 C425.00,379.73 425.43,383.00 425.98,383.00 C426.58,383.00 427.06,390.89 427.23,403.25 L 427.50 423.50 L 434.14 423.79 C439.36,424.02 441.57,423.65 444.42,422.04 C446.58,420.83 449.88,420.00 452.53,420.00 C456.25,420.00 457.00,419.68 457.00,418.11 C457.00,417.07 457.72,415.94 458.60,415.60 C459.49,415.26 459.96,414.35 459.67,413.57 C459.37,412.80 459.77,411.92 460.56,411.61 C461.37,411.31 462.00,409.75 462.00,408.09 C462.00,406.46 462.45,404.84 463.00,404.50 C463.55,404.16 464.00,402.36 464.00,400.50 C464.00,398.64 464.45,396.84 465.00,396.50 C465.55,396.16 466.00,395.08 466.00,394.10 C466.00,393.11 466.90,391.50 468.00,390.50 C469.10,389.50 470.00,388.12 470.00,387.41 C470.00,386.71 471.01,386.00 472.25,385.82 C473.57,385.63 474.50,384.80 474.51,383.79 C474.52,381.89 480.78,375.00 482.49,375.00 C483.09,375.00 485.57,372.98 488.00,370.50 C490.43,368.02 493.22,366.00 494.21,366.00 C495.19,366.00 496.00,365.55 496.00,365.00 C496.00,364.45 496.90,364.00 498.00,364.00 C499.10,364.00 500.00,363.55 500.00,363.00 C500.00,362.45 500.87,362.00 501.94,362.00 C503.01,362.00 504.16,361.55 504.50,361.00 C504.86,360.42 510.29,360.00 517.40,360.00 C528.22,360.00 529.90,360.23 531.42,361.91 C532.52,363.12 533.02,365.02 532.82,367.16 C532.56,369.89 532.04,370.55 529.95,370.80 C528.36,370.98 526.70,370.32 525.54,369.05 C522.57,365.76 513.72,366.20 506.50,370.00 C503.36,371.65 500.22,373.00 499.51,373.00 C498.81,373.00 496.50,374.91 494.39,377.25 C492.27,379.59 490.12,381.36 489.61,381.19 C488.19,380.73 477.00,392.19 477.00,394.10 C477.00,395.02 475.88,396.51 474.50,397.41 C473.12,398.31 472.00,399.94 472.00,401.02 C472.00,402.11 471.55,403.00 471.00,403.00 C470.45,403.00 470.00,404.77 470.00,406.94 C470.00,409.11 469.55,411.16 469.00,411.50 C468.45,411.84 468.00,412.98 468.00,414.03 C468.00,415.08 467.10,417.54 466.00,419.50 C464.90,421.46 464.00,423.65 464.00,424.38 C464.00,425.10 463.10,426.50 462.00,427.50 C460.44,428.91 460.00,430.58 460.00,435.05 C460.00,439.26 459.60,440.94 458.48,441.37 C457.15,441.88 456.96,446.46 457.03,476.71 C457.08,500.15 456.76,511.58 456.05,511.82 C455.47,512.01 455.00,512.58 455.00,513.08 C455.00,513.59 458.71,514.03 463.25,514.07 C469.63,514.13 472.18,514.59 474.50,516.08 C476.15,517.15 478.29,518.30 479.25,518.63 C480.21,518.96 481.00,519.82 481.00,520.54 C481.00,521.91 486.31,525.00 488.65,525.00 C489.39,525.00 490.00,525.45 490.00,526.00 C490.00,526.62 495.40,527.00 504.21,527.00 L 518.42 527.00 L 522.21 530.70 C524.29,532.74 526.00,534.86 526.00,535.41 C526.00,535.96 527.68,538.14 529.73,540.24 ZM 417.00 260.00 C417.00,260.60 421.09,261.00 427.26,261.00 C436.44,261.00 437.65,260.79 438.77,259.00 C439.45,257.90 440.91,257.00 442.01,257.00 C443.10,257.00 444.00,256.38 444.00,255.62 C444.00,254.86 444.67,253.68 445.50,253.00 C446.33,252.32 447.00,250.46 447.00,248.88 C447.00,247.29 447.45,246.00 448.00,246.00 C448.60,246.00 449.00,241.83 449.00,235.50 C449.00,229.17 448.60,225.00 448.00,225.00 C447.45,225.00 447.00,223.71 447.00,222.12 C447.00,220.54 446.33,218.69 445.51,218.01 C444.69,217.33 444.23,216.44 444.48,216.03 C444.73,215.62 443.83,214.25 442.47,212.97 C441.11,211.70 440.00,210.18 440.00,209.61 C440.00,209.03 437.66,206.19 434.79,203.29 C430.72,199.17 429.85,197.75 430.79,196.81 C432.47,195.13 432.30,193.00 430.50,193.00 C429.67,193.00 429.00,193.89 429.00,195.00 C429.00,196.10 428.55,197.00 428.00,197.00 C427.45,197.00 427.00,199.48 427.00,202.50 C427.00,205.52 426.55,208.00 426.00,208.00 C425.45,208.00 424.98,208.56 424.96,209.25 C424.94,209.94 423.59,212.06 421.96,213.96 C420.33,215.87 419.00,217.97 419.00,218.64 C419.00,220.17 413.43,223.00 410.41,223.00 C409.15,223.00 407.84,223.45 407.50,224.00 C407.16,224.55 403.31,225.00 398.94,225.00 C394.31,225.00 391.00,224.58 391.00,224.00 C391.00,223.45 389.23,223.00 387.06,223.00 C384.89,223.00 382.84,222.55 382.50,222.00 C382.16,221.45 381.00,221.00 379.93,221.00 C376.52,221.00 369.00,215.82 369.00,213.48 C369.00,212.84 368.10,211.50 367.00,210.50 C365.90,209.50 365.00,207.66 365.00,206.40 C365.00,205.15 364.55,203.84 364.00,203.50 C362.37,202.49 362.75,181.81 364.46,178.38 C367.40,172.48 378.11,165.00 383.61,165.00 C384.86,165.00 386.16,164.55 386.50,164.00 C386.85,163.43 391.82,163.00 398.00,163.00 C403.99,163.00 409.09,162.66 409.35,162.24 C410.01,161.17 405.37,156.00 403.75,156.00 C403.01,156.00 400.65,154.20 398.50,152.00 C396.35,149.80 394.08,148.00 393.45,148.00 C392.82,148.00 391.50,147.10 390.50,146.00 C389.17,144.53 387.42,144.00 383.88,144.00 C380.91,144.00 377.69,144.77 375.50,146.00 C373.54,147.10 370.83,148.00 369.47,148.00 C368.11,148.00 367.00,148.40 367.00,148.88 C367.00,149.37 364.64,150.92 361.75,152.33 C358.86,153.75 354.72,156.72 352.55,158.95 C350.37,161.18 347.80,163.00 346.83,163.00 C345.86,163.00 343.46,163.90 341.50,165.00 C339.54,166.10 337.14,167.00 336.17,167.00 C333.96,167.00 329.02,169.24 329.01,170.25 C329.00,170.66 328.15,171.00 327.11,171.00 C326.07,171.00 324.95,171.68 324.64,172.50 C324.31,173.37 322.81,174.00 321.09,174.00 C319.46,174.00 317.84,174.45 317.50,175.00 C317.16,175.55 314.01,176.00 310.50,176.00 C306.99,176.00 303.84,175.55 303.50,175.00 C303.16,174.45 298.99,174.00 294.24,174.00 C285.87,174.00 285.49,173.90 282.30,170.80 L 279.00 167.61 L 279.00 156.80 C279.00,150.84 279.41,146.00 279.93,146.00 C280.68,146.00 284.00,140.58 284.00,139.35 C284.00,139.16 282.01,139.00 279.57,139.00 C275.74,139.00 275.10,139.30 274.82,141.25 C274.42,144.06 269.04,144.96 267.04,142.55 C265.40,140.58 261.62,140.55 260.00,142.50 C259.32,143.32 257.75,144.00 256.53,144.00 C255.31,144.00 253.50,144.90 252.50,146.00 C251.50,147.10 249.86,148.00 248.85,148.00 C247.83,148.00 247.00,148.45 247.00,149.00 C247.00,149.55 245.65,150.00 244.00,150.00 C240.25,150.00 240.25,150.50 244.00,153.65 C246.08,155.41 247.00,157.08 247.00,159.12 C247.00,160.81 247.64,162.31 248.50,162.64 C249.32,162.95 250.00,164.07 250.00,165.11 C250.00,166.15 250.45,167.00 251.00,167.00 C251.55,167.00 252.00,167.90 252.00,169.00 C252.00,170.10 252.45,171.00 253.00,171.00 C253.55,171.00 254.00,172.32 254.00,173.94 C254.00,175.56 254.45,177.16 255.00,177.50 C256.43,178.38 256.24,190.60 254.75,193.26 C254.06,194.49 252.40,196.74 251.06,198.25 C249.72,199.76 249.03,201.00 249.52,201.00 C250.01,201.00 248.43,203.02 246.00,205.50 L 241.58 210.00 L 224.54 210.01 L 207.50 210.02 L 206.25 212.71 C205.56,214.19 205.00,216.00 205.00,216.73 C205.00,217.46 204.32,218.32 203.50,218.64 C202.64,218.97 202.00,220.46 202.00,222.11 C202.00,223.70 201.55,225.00 201.00,225.00 C200.45,225.00 200.00,226.26 200.00,227.80 C200.00,229.34 199.53,231.07 198.96,231.64 C198.35,232.25 198.04,236.35 198.21,241.59 L 198.50 250.50 L 202.89 250.81 C205.30,250.99 207.75,250.65 208.34,250.06 C208.92,249.48 210.81,249.00 212.53,249.00 C214.57,249.00 216.47,248.13 218.00,246.50 C219.58,244.82 221.42,244.00 223.62,244.00 C225.41,244.00 227.16,243.55 227.50,243.00 C227.84,242.45 228.99,242.00 230.06,242.00 C231.13,242.00 232.00,241.55 232.00,241.00 C232.00,240.45 232.87,240.00 233.94,240.00 C235.01,240.00 236.16,239.55 236.50,239.00 C236.84,238.45 238.64,238.00 240.50,238.00 C242.36,238.00 244.16,237.55 244.50,237.00 C244.84,236.45 245.94,236.00 246.95,236.00 C247.96,236.00 249.04,235.33 249.36,234.51 C249.79,233.38 250.95,233.17 254.25,233.62 C257.53,234.07 258.90,233.83 259.91,232.61 C261.08,231.19 265.01,231.00 292.50,231.00 C319.06,231.00 323.94,231.23 325.00,232.50 C325.89,233.57 328.23,234.00 333.12,234.00 C337.04,234.00 340.00,234.43 340.00,235.00 C340.00,235.55 341.77,236.00 343.94,236.00 C346.11,236.00 348.16,236.45 348.50,237.00 C348.84,237.55 350.89,238.00 353.06,238.00 C355.23,238.00 357.00,238.45 357.00,239.00 C357.00,239.55 357.87,240.00 358.94,240.00 C360.01,240.00 361.16,240.45 361.50,241.00 C361.84,241.55 363.89,242.00 366.06,242.00 C368.23,242.00 370.00,242.45 370.00,243.00 C370.00,243.55 371.35,244.00 373.00,244.00 C374.65,244.00 376.00,244.45 376.00,245.00 C376.00,245.55 376.71,246.00 377.57,246.00 C378.44,246.00 379.82,246.68 380.64,247.50 C381.47,248.32 383.42,249.00 384.97,249.00 C386.52,249.00 390.36,250.35 393.50,252.00 C396.64,253.65 400.49,255.00 402.07,255.00 C403.65,255.00 406.54,255.90 408.50,257.00 C410.46,258.10 413.17,259.00 414.53,259.00 C415.89,259.00 417.00,259.45 417.00,260.00 ZM 117.00 523.59 C117.00,524.37 117.46,525.00 118.01,525.00 C120.67,525.00 127.67,519.66 129.15,516.50 C132.38,509.60 134.47,507.29 139.60,504.95 C141.95,503.88 144.16,502.55 144.50,502.00 C144.84,501.45 147.79,501.00 151.06,501.00 C156.33,501.00 157.00,500.78 157.00,499.00 C157.00,497.64 157.67,497.00 159.09,497.00 C160.25,497.00 161.40,496.21 161.65,495.25 C162.54,491.93 170.80,489.00 179.28,489.00 C185.48,489.00 187.00,488.70 187.00,487.50 C187.00,486.67 186.55,486.00 186.00,486.00 C185.35,486.00 185.00,473.69 185.00,451.06 C185.00,428.84 184.64,415.89 184.00,415.50 C183.45,415.16 183.00,412.26 183.00,409.06 C183.00,405.15 182.52,402.84 181.52,402.02 C179.81,400.60 177.00,395.27 177.00,393.45 C177.00,392.77 176.32,391.95 175.50,391.64 C174.68,391.32 174.00,389.95 174.00,388.59 C174.00,387.23 173.55,385.84 173.00,385.50 C172.45,385.16 172.00,383.11 172.00,380.94 C172.00,378.77 171.55,377.00 171.00,377.00 C170.45,377.00 170.00,376.17 170.00,375.15 C170.00,374.14 169.10,372.50 168.00,371.50 C166.90,370.50 166.00,369.21 166.00,368.62 C166.00,367.22 154.88,356.00 153.48,356.00 C152.89,356.00 150.64,354.19 148.48,351.98 C144.72,348.13 136.05,343.00 133.30,343.00 C132.59,343.00 132.00,342.55 132.00,342.00 C132.00,341.44 129.22,341.00 125.65,341.00 C120.53,341.00 118.95,341.39 117.46,343.05 C116.30,344.32 114.64,344.98 113.05,344.80 C110.89,344.55 110.45,343.93 110.19,340.74 C109.68,334.59 111.01,334.00 125.43,334.00 C133.14,334.00 138.00,334.39 138.00,335.00 C138.00,335.55 138.90,336.00 140.00,336.00 C141.10,336.00 142.00,336.45 142.00,337.00 C142.00,337.55 142.84,338.00 143.88,338.00 C144.91,338.00 146.32,338.67 147.00,339.50 C147.68,340.33 148.77,341.00 149.42,341.00 C150.07,341.00 152.35,342.80 154.50,345.00 C156.65,347.20 158.90,349.00 159.50,349.00 C160.90,349.00 167.52,355.94 168.33,358.25 C168.66,359.21 169.63,360.00 170.47,360.00 C171.31,360.00 172.00,360.61 172.00,361.35 C172.00,362.08 172.90,363.51 174.01,364.51 C176.91,367.13 179.00,371.80 179.00,375.65 C179.00,377.49 179.45,379.00 180.00,379.00 C180.55,379.00 181.00,380.35 181.00,382.00 C181.00,383.65 181.45,385.00 182.00,385.00 C182.61,385.00 183.00,380.55 183.00,373.65 C183.00,363.58 183.22,362.11 185.00,360.50 C186.10,359.50 187.00,357.66 187.00,356.40 C187.00,355.15 187.45,353.84 188.00,353.50 C188.55,353.16 189.00,351.84 189.00,350.56 C189.00,349.29 189.68,347.68 190.50,347.00 C191.32,346.32 192.00,345.20 192.00,344.53 C192.00,343.86 192.90,342.50 194.00,341.50 C195.10,340.50 196.00,339.06 196.00,338.29 C196.00,337.52 197.35,335.45 199.00,333.70 C200.64,331.94 201.99,329.76 202.00,328.84 C202.00,326.77 197.91,319.00 196.81,319.00 C196.37,319.00 195.99,318.21 195.98,317.25 C195.96,315.02 182.87,302.00 180.66,302.00 C179.75,302.00 179.00,301.55 179.00,301.00 C179.00,300.45 178.17,300.00 177.15,300.00 C176.14,300.00 174.50,299.10 173.50,298.00 C172.50,296.90 170.66,296.00 169.40,296.00 C168.15,296.00 166.84,295.55 166.50,295.00 C166.15,294.43 161.06,294.00 154.64,294.00 C147.47,294.00 142.98,293.58 142.24,292.84 C140.57,291.17 130.21,291.04 128.85,292.68 C128.25,293.40 126.47,294.00 124.91,294.00 C123.34,294.00 120.46,294.90 118.50,296.00 C116.54,297.10 114.44,298.00 113.83,298.00 C113.22,298.00 111.43,299.35 109.85,301.00 C108.27,302.65 106.52,304.00 105.95,304.00 C104.43,304.00 97.00,311.62 97.00,313.18 C97.00,313.92 96.10,315.08 95.00,315.77 C93.90,316.45 93.00,317.89 93.00,318.95 C93.00,320.01 92.55,321.16 92.00,321.50 C91.45,321.84 91.00,323.64 91.00,325.50 C91.00,327.36 90.55,329.16 90.00,329.50 C89.44,329.84 89.00,334.44 89.00,339.86 C89.00,353.24 90.58,356.14 106.47,371.98 C113.36,378.85 119.00,385.26 119.00,386.23 C119.00,387.25 119.74,388.00 120.76,388.00 C121.79,388.00 123.09,389.34 123.90,391.25 C124.66,393.04 126.21,395.52 127.34,396.77 C128.47,398.02 129.49,399.74 129.62,400.59 C129.74,401.43 130.78,402.94 131.92,403.93 C133.06,404.92 134.00,406.47 134.00,407.37 C134.00,408.27 134.45,409.00 135.00,409.00 C135.55,409.00 136.00,409.63 136.00,410.40 C136.00,411.17 137.35,414.36 139.00,417.50 C140.65,420.64 142.00,424.23 142.00,425.48 C142.00,428.47 144.75,435.00 146.01,435.00 C146.56,435.00 147.00,437.22 147.00,439.94 C147.00,442.66 147.45,445.16 148.00,445.50 C148.55,445.84 149.00,449.66 149.00,454.00 C149.00,458.34 148.55,462.16 148.00,462.50 C147.45,462.84 147.00,464.84 147.00,466.95 C147.00,469.44 146.47,470.99 145.50,471.36 C144.68,471.68 144.00,472.85 144.00,473.97 C144.00,475.09 143.52,476.00 142.93,476.00 C142.35,476.00 142.01,477.24 142.18,478.75 C142.45,481.05 143.04,481.55 145.81,481.82 C148.87,482.11 149.09,482.37 148.81,485.32 L 148.50 488.50 L 141.50 488.80 C137.65,488.97 134.07,489.53 133.55,490.05 C133.03,490.57 130.92,491.00 128.86,491.00 C126.80,491.00 124.84,491.45 124.50,492.00 C124.16,492.55 123.02,493.00 121.97,493.00 C120.92,493.00 118.46,493.90 116.50,495.00 C114.42,496.17 111.09,497.00 108.47,497.00 C106.01,497.00 104.00,497.45 104.00,498.00 C104.00,498.55 102.26,499.00 100.12,499.00 C97.90,499.00 95.71,499.64 95.00,500.50 C94.32,501.33 93.29,502.00 92.73,502.00 C91.31,502.00 82.08,510.75 82.77,511.44 C83.08,511.75 84.61,512.00 86.17,512.00 C87.72,512.00 89.00,512.45 89.00,513.00 C89.00,514.93 91.66,513.97 94.50,511.00 C97.18,508.20 97.87,508.00 104.69,508.00 C108.90,508.00 112.00,507.58 112.00,507.00 C112.00,506.45 112.75,506.00 113.67,506.00 C115.98,506.00 119.00,503.08 119.00,500.85 C119.00,499.67 119.72,499.00 121.00,499.00 C122.10,499.00 123.00,498.66 123.00,498.24 C123.00,497.83 124.46,496.90 126.25,496.18 C128.04,495.46 130.28,494.45 131.24,493.93 C132.19,493.42 133.85,493.00 134.93,493.00 C136.00,493.00 137.16,492.55 137.50,492.00 C137.84,491.45 140.57,491.00 143.56,491.00 C148.65,491.00 149.00,491.16 149.00,493.43 C149.00,496.11 144.51,499.00 140.35,499.00 C139.06,499.00 138.00,499.42 138.00,499.93 C138.00,500.99 132.35,504.00 130.35,504.00 C129.61,504.00 129.00,504.42 129.00,504.93 C129.00,505.44 128.01,506.00 126.79,506.18 C125.37,506.39 123.91,507.91 122.67,510.50 C121.61,512.70 119.90,516.23 118.87,518.34 C117.84,520.46 117.00,522.82 117.00,523.59 ZM 305.50 333.00 C305.84,333.55 308.99,334.00 312.50,334.00 C316.01,334.00 319.16,333.55 319.50,333.00 C319.84,332.45 320.89,332.00 321.82,332.00 C322.76,332.00 329.37,326.15 336.50,319.00 C345.30,310.18 350.18,306.00 351.68,306.00 C352.89,306.00 354.16,305.55 354.50,305.00 C354.84,304.45 357.34,304.00 360.06,304.00 C362.78,304.00 365.00,303.55 365.00,303.00 C365.00,302.43 367.98,302.00 371.94,302.00 C375.76,302.00 379.16,301.55 379.50,301.00 C379.84,300.45 381.86,300.00 384.00,300.00 C386.14,300.00 388.16,299.55 388.50,299.00 C388.84,298.45 391.27,298.00 393.90,298.00 C397.42,298.00 399.17,297.47 400.50,296.00 C401.50,294.90 402.81,294.00 403.41,294.00 C404.02,294.00 405.86,292.43 407.51,290.52 C409.15,288.61 411.16,287.03 411.97,287.02 C412.78,287.01 415.76,284.71 418.60,281.90 C421.44,279.10 424.83,276.28 426.13,275.63 C427.43,274.99 428.93,273.49 429.46,272.29 C429.99,271.10 431.34,269.78 432.46,269.35 C433.67,268.90 429.83,268.45 423.02,268.26 C416.70,268.08 411.10,267.50 410.57,266.97 C410.03,266.43 408.59,266.00 407.36,266.00 C406.13,266.00 404.84,265.55 404.50,265.00 C404.16,264.45 403.06,264.00 402.05,264.00 C401.04,264.00 399.95,263.30 399.62,262.45 C399.17,261.27 398.19,261.06 395.52,261.56 C392.81,262.07 391.88,261.85 391.40,260.61 C391.06,259.72 389.93,259.00 388.89,259.00 C387.85,259.00 387.00,258.55 387.00,258.00 C387.00,257.45 386.13,257.00 385.06,257.00 C383.99,257.00 382.84,256.55 382.50,256.00 C382.16,255.45 380.11,255.00 377.94,255.00 C375.77,255.00 374.00,254.55 374.00,254.00 C374.00,253.45 373.10,253.00 372.00,253.00 C370.90,253.00 370.00,252.55 370.00,252.00 C370.00,251.45 368.68,251.00 367.06,251.00 C365.44,251.00 363.84,250.55 363.50,250.00 C363.16,249.45 361.36,249.00 359.50,249.00 C357.64,249.00 355.86,248.58 355.54,248.06 C354.45,246.29 348.69,244.00 345.35,244.00 C343.51,244.00 342.00,243.55 342.00,243.00 C342.00,242.45 340.23,242.00 338.06,242.00 C335.89,242.00 333.84,241.55 333.50,241.00 C333.16,240.45 329.79,240.00 326.00,240.00 C322.21,240.00 318.84,239.55 318.50,239.00 C317.66,237.64 267.34,237.64 266.50,239.00 C266.16,239.55 263.90,240.00 261.47,240.00 C258.91,240.00 255.56,240.84 253.50,242.00 C251.54,243.10 248.38,244.00 246.47,244.00 C244.56,244.00 243.00,244.45 243.00,245.00 C243.00,245.55 242.38,246.00 241.62,246.00 C240.86,246.00 239.68,246.68 239.00,247.50 C238.32,248.32 236.49,249.00 234.94,249.00 C233.39,249.00 231.84,249.45 231.50,250.00 C231.16,250.55 229.85,251.00 228.60,251.00 C227.34,251.00 225.50,251.90 224.50,253.00 C223.30,254.33 221.42,255.00 218.90,255.00 C216.82,255.00 214.84,255.45 214.50,256.00 C214.16,256.55 211.91,257.00 209.50,257.00 C207.09,257.00 204.84,257.45 204.50,258.00 C204.16,258.55 203.01,259.00 201.94,259.00 C200.67,259.00 200.00,259.69 200.00,261.00 C200.00,262.10 200.45,263.00 201.00,263.00 C201.55,263.00 202.00,263.68 202.00,264.52 C202.00,266.59 216.31,281.00 218.36,281.00 C219.26,281.00 220.00,281.45 220.00,282.00 C220.00,282.55 220.90,283.00 222.00,283.00 C223.10,283.00 224.00,283.45 224.00,284.00 C224.00,284.55 224.66,285.00 225.47,285.00 C226.28,285.00 228.54,285.90 230.50,287.00 C232.46,288.10 235.62,289.00 237.53,289.00 C239.44,289.00 241.00,289.45 241.00,290.00 C241.00,290.55 242.36,291.00 244.03,291.00 C245.80,291.00 247.30,291.62 247.64,292.50 C247.96,293.35 249.45,294.00 251.05,294.00 C252.61,294.00 254.16,294.45 254.50,295.00 C254.84,295.55 255.98,296.00 257.03,296.00 C258.08,296.00 260.54,296.90 262.50,298.00 C264.46,299.10 266.48,300.00 267.00,300.00 C268.36,300.00 275.00,306.29 275.00,307.59 C275.00,309.87 278.16,314.90 281.02,317.16 C282.65,318.45 283.99,320.16 283.99,320.96 C284.00,323.06 291.08,330.00 293.20,330.00 C294.19,330.00 295.00,330.45 295.00,331.00 C295.00,331.55 297.22,332.00 299.94,332.00 C302.66,332.00 305.16,332.45 305.50,333.00 ZM 492.54 190.06 C493.32,191.32 505.72,191.27 506.50,190.00 C506.84,189.45 508.16,189.00 509.44,189.00 C510.71,189.00 512.32,188.32 513.00,187.50 C513.68,186.68 514.76,186.00 515.39,186.00 C516.02,186.00 520.80,181.73 526.00,176.50 L 535.46 167.00 L 525.92 167.00 C516.76,167.00 516.27,166.89 513.94,164.25 C508.88,158.54 508.04,155.47 510.25,150.71 C511.16,148.74 512.24,148.01 514.25,148.01 C515.76,148.00 517.00,147.55 517.00,147.00 C517.00,146.45 517.84,146.00 518.88,146.00 C519.91,146.00 521.26,145.39 521.88,144.65 C522.65,143.72 524.51,143.44 527.79,143.75 C531.38,144.10 532.91,143.81 533.91,142.61 C534.64,141.72 536.54,141.00 538.12,141.00 C539.71,141.00 541.00,140.66 541.00,140.24 C541.00,139.83 542.46,138.89 544.25,138.16 C551.22,135.31 552.63,134.49 556.25,131.10 C558.31,129.17 560.00,126.79 560.00,125.80 C560.00,124.69 560.74,124.00 561.93,124.00 C563.65,124.00 567.00,119.28 567.00,116.85 C567.00,115.19 562.28,116.03 560.50,118.00 C559.50,119.10 557.66,120.00 556.40,120.00 C555.15,120.00 553.84,120.45 553.50,121.00 C553.16,121.55 551.81,122.00 550.50,122.00 C549.19,122.00 547.84,122.45 547.50,123.00 C547.16,123.55 546.01,124.00 544.94,124.00 C543.87,124.00 543.00,124.45 543.00,125.00 C543.00,125.55 540.37,126.00 537.12,126.00 C533.12,126.00 530.85,126.48 530.00,127.50 C528.12,129.77 499.21,129.71 498.34,127.44 C497.85,126.18 496.19,125.92 489.67,126.09 C484.30,126.24 481.47,125.92 481.22,125.15 C480.69,123.58 468.30,123.60 467.78,125.17 C467.52,125.95 465.15,126.27 460.87,126.11 C455.98,125.93 454.03,126.26 453.06,127.43 C452.23,128.43 450.92,128.77 449.39,128.38 C448.07,128.05 447.00,128.13 447.00,128.56 C447.00,129.82 450.20,133.00 451.47,133.00 C452.10,133.00 453.92,134.35 455.50,136.00 C457.08,137.65 459.08,139.00 459.95,139.00 C460.82,139.00 462.38,140.13 463.42,141.52 C464.62,143.12 465.93,143.84 467.01,143.50 C467.95,143.20 469.29,143.64 469.98,144.48 C470.68,145.31 472.51,146.00 474.06,146.00 C475.61,146.00 477.16,146.45 477.50,147.00 C477.84,147.55 480.57,148.00 483.56,148.00 C488.36,148.00 489.00,147.76 489.00,145.97 C489.00,144.85 489.67,143.68 490.50,143.36 C492.71,142.51 492.32,141.18 489.75,140.82 C488.14,140.59 487.41,139.72 487.18,137.75 C486.87,135.04 486.95,135.00 492.43,135.00 L 498.00 135.00 L 498.00 141.35 C498.00,145.12 497.36,148.97 496.43,150.85 L 494.85 154.00 L 482.99 154.00 C476.15,154.00 470.86,153.58 470.50,153.00 C470.16,152.45 468.56,152.00 466.94,152.00 C465.32,152.00 464.00,151.55 464.00,151.00 C464.00,150.45 462.72,150.00 461.15,150.00 C459.58,150.00 457.50,149.11 456.50,148.00 C455.50,146.90 454.17,146.00 453.53,146.00 C452.90,146.00 451.08,144.65 449.49,142.99 C441.01,134.14 424.97,132.31 418.98,139.52 C418.31,140.33 417.27,141.00 416.67,141.00 C416.07,141.00 413.87,142.67 411.78,144.72 L 407.97 148.43 L 416.21 156.72 L 424.46 165.00 L 431.17 165.00 C434.86,165.00 438.16,165.45 438.50,166.00 C438.84,166.55 441.55,167.00 444.53,167.00 C448.09,167.00 451.16,167.69 453.50,169.00 C455.46,170.10 458.12,171.00 459.42,171.00 C460.72,171.00 462.05,171.68 462.36,172.50 C462.68,173.32 463.56,174.00 464.31,174.00 C465.07,174.00 466.50,174.90 467.50,176.00 C468.50,177.10 469.86,178.00 470.54,178.00 C471.21,178.00 472.00,178.90 472.29,180.00 C472.60,181.20 473.65,182.00 474.91,182.00 C476.06,182.00 477.00,182.45 477.00,183.00 C477.00,183.55 477.90,184.00 479.00,184.00 C480.10,184.00 481.00,184.45 481.00,185.00 C481.00,185.55 482.06,186.00 483.35,186.00 C485.87,186.00 491.59,188.53 492.54,190.06 ZM 209.36 202.50 C209.83,203.72 212.23,204.00 222.26,204.00 L 234.58 204.00 L 239.34 199.16 C244.88,193.54 249.55,185.15 248.01,183.61 C247.45,183.05 247.00,181.80 247.00,180.83 C247.00,179.86 246.10,177.46 245.00,175.50 C243.90,173.54 243.00,170.83 243.00,169.47 C243.00,168.11 242.55,167.00 242.00,167.00 C241.45,167.00 241.00,166.23 241.00,165.28 C241.00,162.35 231.97,154.00 228.79,154.00 C227.25,154.00 226.00,153.55 226.00,153.00 C226.00,152.45 225.10,152.00 224.00,152.00 C222.90,152.00 222.00,151.55 222.00,151.00 C222.00,149.19 216.42,149.96 211.51,152.44 C206.05,155.21 197.63,163.05 195.45,167.40 C193.80,170.72 193.43,184.00 195.00,184.00 C195.55,184.00 196.00,185.13 196.00,186.51 C196.00,187.90 196.56,190.03 197.25,191.26 C199.42,195.15 205.34,201.00 207.10,201.00 C208.03,201.00 209.05,201.68 209.36,202.50 ZM 194.75 641.63 L 191.50 644.98 L 178.31 644.99 C170.58,645.00 164.86,644.59 164.50,644.00 C164.16,643.45 162.36,643.00 160.50,643.00 C158.64,643.00 156.84,642.55 156.50,642.00 C156.16,641.45 155.17,641.00 154.30,641.00 C153.43,641.00 149.82,638.41 146.27,635.25 C142.73,632.09 138.63,628.79 137.16,627.92 C135.70,627.06 134.35,625.26 134.17,623.92 C133.98,622.59 133.42,621.07 132.92,620.55 C132.41,620.03 132.00,614.75 132.00,608.83 C132.00,599.91 132.34,597.45 134.00,594.50 C135.10,592.54 136.00,590.23 136.00,589.37 C136.00,588.51 136.83,586.61 137.85,585.15 C138.87,583.69 140.01,581.26 140.37,579.75 C140.74,578.24 141.61,577.00 142.31,577.00 C143.01,577.00 145.59,574.95 148.04,572.45 C152.40,568.00 161.46,562.78 171.50,558.92 C175.14,557.52 179.03,557.00 185.83,557.00 C194.82,557.00 195.35,557.13 200.43,560.50 C203.33,562.42 206.26,564.00 206.94,564.00 C207.61,564.00 210.15,565.63 212.58,567.62 C217.31,571.49 218.45,575.55 215.51,577.99 C214.28,579.01 213.23,578.44 209.35,574.61 C206.78,572.08 203.88,570.00 202.92,570.00 C201.96,570.00 201.02,569.66 200.83,569.25 C200.65,568.84 198.54,567.49 196.16,566.25 C192.89,564.56 190.11,564.00 184.96,564.00 C181.20,564.00 177.84,564.45 177.50,565.00 C177.16,565.55 175.90,566.00 174.69,566.00 C173.48,566.00 169.02,567.82 164.78,570.05 C155.78,574.76 146.15,583.93 143.54,590.28 C142.59,592.60 140.95,596.42 139.90,598.78 C137.71,603.71 137.35,615.28 139.29,618.54 C141.41,622.11 154.85,634.00 156.76,634.00 C157.77,634.00 159.05,634.45 159.59,634.99 C161.07,636.47 169.55,638.19 177.94,638.71 L 185.39 639.17 L 190.69 633.43 C193.61,630.26 196.00,627.15 196.00,626.51 C196.00,625.87 197.17,624.26 198.60,622.92 C200.03,621.59 202.03,618.88 203.04,616.90 C205.36,612.39 204.25,611.00 198.36,611.00 C196.03,611.00 193.84,610.55 193.50,610.00 C193.16,609.45 191.59,609.00 190.00,609.00 C188.41,609.00 186.84,608.55 186.50,608.00 C186.16,607.45 183.55,606.99 180.69,606.98 C174.58,606.97 173.88,606.58 171.67,602.10 C170.42,599.55 170.28,598.36 171.12,597.35 C172.79,595.35 176.80,595.71 178.23,598.00 C179.22,599.58 180.56,600.00 184.68,600.00 C187.54,600.00 190.16,600.45 190.50,601.00 C190.84,601.55 192.19,602.00 193.50,602.00 C194.81,602.00 196.16,602.45 196.50,603.00 C196.84,603.55 198.78,604.00 200.81,604.00 C202.84,604.00 206.41,605.01 208.75,606.25 C212.34,608.15 213.00,608.97 213.00,611.58 C213.00,615.44 209.42,622.46 205.21,626.86 C203.45,628.70 202.00,630.77 202.00,631.45 C202.00,632.13 201.10,633.50 200.00,634.50 C198.90,635.50 198.00,636.75 198.00,637.30 C198.00,637.84 196.54,639.79 194.75,641.63 ZM 398.02 217.53 C399.16,218.89 399.46,218.89 400.97,217.53 C401.90,216.69 403.62,216.00 404.80,216.00 C407.38,216.00 419.00,205.11 419.00,202.69 C419.00,201.76 419.45,201.00 420.00,201.00 C420.55,201.00 421.00,199.23 421.00,197.06 C421.00,194.89 421.49,192.82 422.09,192.45 C422.87,191.96 422.87,191.47 422.09,190.69 C421.49,190.09 421.00,188.09 421.00,186.25 C421.00,182.72 417.37,178.00 414.65,178.00 C413.86,178.00 411.82,176.43 410.13,174.50 C408.44,172.57 406.37,171.00 405.53,171.00 C404.69,171.00 404.00,170.55 404.00,170.00 C404.00,169.45 401.52,169.00 398.50,169.00 C395.48,169.00 393.00,169.45 393.00,170.00 C393.00,170.55 391.70,171.00 390.11,171.00 C388.46,171.00 386.97,171.64 386.64,172.50 C386.32,173.32 385.44,174.00 384.69,174.00 C380.87,174.00 374.33,179.23 371.25,184.74 C369.76,187.40 369.57,197.00 371.00,197.00 C371.55,197.00 372.00,198.20 372.00,199.67 C372.00,201.14 372.75,203.17 373.66,204.18 C374.57,205.19 375.81,206.99 376.41,208.18 C377.81,210.96 382.72,213.83 386.25,213.93 C387.76,213.97 389.00,214.45 389.00,215.00 C389.00,215.55 390.74,216.00 392.88,216.00 C395.13,216.00 397.28,216.64 398.02,217.53 ZM 309.55 168.09 C310.04,168.87 310.53,168.87 311.31,168.09 C311.91,167.49 313.82,167.00 315.55,167.00 C317.42,167.00 319.42,166.19 320.50,165.00 C321.50,163.90 323.11,163.00 324.10,163.00 C325.08,163.00 326.16,162.55 326.50,162.00 C326.84,161.45 327.92,161.00 328.91,161.00 C330.98,161.00 336.69,158.31 337.54,156.94 C337.86,156.42 339.13,156.00 340.36,156.00 C341.65,156.00 344.24,154.31 346.50,152.00 C348.65,149.80 350.92,148.00 351.55,148.00 C353.65,148.00 359.09,144.82 360.29,142.90 C360.95,141.85 362.43,141.00 363.59,141.00 C364.75,141.00 367.11,140.29 368.85,139.43 C371.58,138.07 371.81,137.66 370.57,136.43 C369.79,135.64 367.31,135.00 365.07,135.00 C362.83,135.00 361.00,134.55 361.00,134.00 C361.00,133.38 355.35,133.00 346.06,133.00 C337.18,133.00 330.87,133.41 330.50,134.00 C330.16,134.55 326.34,135.00 322.00,135.00 C317.66,135.00 313.84,135.45 313.50,136.00 C313.16,136.55 309.31,137.00 304.94,137.00 C297.67,137.00 297.00,137.17 297.00,139.00 C297.00,140.29 296.33,141.00 295.12,141.00 C292.85,141.00 291.42,142.63 288.34,148.71 C285.04,155.24 285.20,160.86 288.80,164.31 C291.41,166.81 292.24,167.00 300.25,167.00 C305.39,167.00 309.15,167.44 309.55,168.09 ZM 399.18 141.71 C400.12,142.85 401.05,142.42 404.41,139.25 C406.66,137.13 409.74,134.78 411.25,134.03 C412.76,133.28 414.00,132.29 414.00,131.83 C414.00,131.37 414.91,131.00 416.03,131.00 C417.15,131.00 418.32,130.32 418.64,129.50 C418.96,128.65 420.45,128.00 422.05,128.00 C423.61,128.00 425.16,127.55 425.50,127.00 C425.84,126.45 427.19,126.00 428.50,126.00 C429.81,126.00 431.16,125.55 431.50,125.00 C431.84,124.45 433.64,124.00 435.50,124.00 C437.36,124.00 439.16,123.55 439.50,123.00 C439.84,122.45 441.41,122.00 443.00,122.00 C444.59,122.00 446.16,121.55 446.50,121.00 C446.84,120.45 450.66,120.00 455.00,120.00 C459.34,120.00 463.16,119.55 463.50,119.00 C463.86,118.42 469.18,118.00 476.06,118.00 C483.35,118.00 488.00,118.39 488.00,119.00 C488.00,119.57 490.93,120.00 494.80,120.00 C498.54,120.00 502.07,120.47 502.64,121.04 C503.26,121.66 507.67,121.96 513.58,121.79 C522.08,121.54 523.52,121.25 523.81,119.75 C524.09,118.32 523.42,118.00 520.13,118.00 C517.92,118.00 515.84,117.55 515.50,117.00 C515.16,116.45 514.08,116.00 513.09,116.00 C511.02,116.00 505.31,113.31 504.46,111.94 C504.14,111.42 502.66,111.00 501.16,111.00 C499.59,111.00 497.83,110.16 497.00,109.00 C496.21,107.90 494.76,107.00 493.78,107.00 C492.80,107.00 492.00,106.55 492.00,106.00 C492.00,105.45 490.89,105.00 489.53,105.00 C488.17,105.00 485.46,104.10 483.50,103.00 C481.44,101.84 478.09,101.00 475.53,101.00 C473.10,101.00 470.84,100.55 470.50,100.00 C469.69,98.69 451.31,98.69 450.50,100.00 C450.16,100.55 447.69,101.00 445.00,101.00 C442.31,101.00 439.84,101.45 439.50,102.00 C439.16,102.55 438.02,103.00 436.97,103.00 C435.92,103.00 433.46,103.90 431.50,105.00 C429.54,106.10 427.39,107.00 426.71,107.00 C426.03,107.00 424.92,107.90 424.23,109.00 C423.55,110.10 422.09,111.00 420.99,111.00 C419.66,111.00 419.00,111.67 419.00,113.03 C419.00,114.15 418.21,115.35 417.25,115.70 C413.98,116.89 406.00,124.18 406.00,125.97 C406.00,126.95 405.35,128.30 404.55,128.96 C403.75,129.62 401.96,132.45 400.56,135.25 C398.61,139.18 398.29,140.65 399.18,141.71 ZM 232.52 132.03 C232.92,132.67 238.08,132.95 246.33,132.78 C259.33,132.50 259.50,132.47 259.83,130.13 C260.02,128.83 259.68,127.28 259.08,126.68 C258.49,126.09 258.00,124.79 258.00,123.80 C258.00,122.81 257.55,122.00 257.00,122.00 C256.45,122.00 256.00,121.10 256.00,120.00 C256.00,118.67 255.33,118.00 254.00,118.00 C252.67,118.00 252.00,117.33 252.00,116.00 C252.00,114.87 251.33,114.00 250.47,114.00 C249.63,114.00 247.56,112.43 245.87,110.50 C244.18,108.57 242.04,107.00 241.12,107.00 C240.20,107.00 238.79,106.10 238.00,105.00 C237.13,103.80 235.41,103.00 233.69,103.00 C231.65,103.00 230.66,102.41 230.29,101.00 C229.83,99.24 228.93,99.00 222.85,99.00 C217.63,99.00 215.80,98.63 215.36,97.50 C214.96,96.45 213.33,96.00 209.95,96.00 C207.29,96.00 204.84,95.55 204.50,95.00 C204.16,94.45 201.76,94.00 199.16,94.00 C195.59,94.00 194.09,93.51 193.00,92.00 C192.19,90.87 190.41,90.00 188.93,90.00 C187.49,90.00 185.50,89.10 184.50,88.00 C183.50,86.90 181.78,86.00 180.67,86.00 C178.69,86.00 178.69,86.04 180.83,88.31 C182.02,89.59 183.00,91.09 183.00,91.66 C183.00,92.23 183.90,93.50 185.00,94.50 C186.10,95.50 187.00,96.84 187.00,97.48 C187.00,98.12 188.12,99.71 189.50,101.00 C190.88,102.29 192.00,103.95 192.00,104.69 C192.00,106.44 205.49,120.00 207.23,120.00 C207.96,120.00 209.21,120.90 210.00,122.00 C210.79,123.10 212.16,124.00 213.05,124.00 C213.93,124.00 215.74,125.16 217.07,126.58 C218.89,128.51 220.16,129.02 222.16,128.62 C223.83,128.28 225.28,128.63 226.04,129.54 C226.70,130.34 228.29,131.00 229.56,131.00 C230.84,131.00 232.17,131.46 232.52,132.03 ZM 435.50 629.93 C435.50,631.21 434.54,632.89 433.37,633.67 C431.47,634.93 430.95,634.83 428.37,632.68 C426.79,631.36 423.70,629.70 421.50,628.99 C415.05,626.90 411.36,625.14 410.02,623.52 C409.32,622.68 407.71,622.00 406.44,622.00 C405.16,622.00 403.84,621.55 403.50,621.00 C403.16,620.45 400.86,619.07 398.39,617.95 C395.92,616.83 393.65,615.25 393.34,614.45 C393.04,613.65 391.76,613.00 390.50,613.00 C389.13,613.00 386.96,611.58 385.10,609.47 C382.38,606.36 382.00,605.20 382.00,600.02 L 382.00 594.11 L 389.50 586.81 C393.62,582.79 397.00,578.92 397.00,578.20 C397.00,577.49 396.33,575.61 395.52,574.03 C393.26,569.67 385.18,566.28 383.50,569.00 C383.16,569.55 381.33,570.00 379.44,570.00 L 376.00 570.00 L 376.00 587.44 C376.00,597.99 376.40,605.13 377.00,605.50 C377.55,605.84 378.00,607.19 378.00,608.50 C378.00,609.81 378.45,611.16 379.00,611.50 C380.67,612.53 380.25,627.55 378.51,628.99 C375.54,631.46 374.00,629.44 374.00,623.09 C374.00,619.81 373.55,616.84 373.00,616.50 C372.45,616.16 372.00,614.87 372.00,613.64 C372.00,612.41 371.50,610.90 370.90,610.30 C370.19,609.59 369.78,603.65 369.76,593.85 C369.75,585.41 369.52,577.94 369.26,577.25 C368.54,575.36 366.20,575.75 365.02,577.96 C363.78,580.28 357.55,583.46 356.05,582.53 C353.51,580.96 355.00,576.23 359.25,572.38 C362.46,569.47 363.50,567.79 363.50,565.52 C363.50,562.91 363.91,562.45 366.47,562.16 C368.10,561.98 371.15,562.39 373.25,563.08 C376.16,564.04 377.34,564.06 378.23,563.17 C380.26,561.14 393.01,561.71 396.75,563.99 C398.54,565.08 400.00,566.58 400.00,567.33 C400.00,568.08 400.90,569.50 402.00,570.50 C403.57,571.92 404.00,573.58 404.00,578.27 C404.00,583.87 403.76,584.48 400.12,588.12 C397.98,590.25 395.82,592.00 395.30,592.00 C393.36,592.00 389.00,597.70 389.00,600.23 C389.00,603.12 393.06,607.00 396.08,607.00 C397.07,607.00 398.48,607.85 399.21,608.88 C400.80,611.17 407.40,614.99 409.78,615.02 C410.73,615.03 413.50,616.39 415.94,618.05 C418.39,619.70 421.51,621.34 422.87,621.68 C424.24,622.03 427.64,623.50 430.43,624.96 C434.31,626.98 435.50,628.15 435.50,629.93 ZM 230.00 198.00 C230.00,198.57 227.02,199.00 223.06,199.00 C219.24,199.00 215.84,198.55 215.50,198.00 C215.16,197.45 214.11,197.00 213.16,197.00 C212.22,197.00 210.79,196.10 210.00,195.00 C209.21,193.90 207.98,193.00 207.28,193.00 C206.58,193.00 204.20,191.20 202.00,189.00 L 198.00 185.00 L 198.00 176.16 C198.00,167.34 198.01,167.31 201.47,164.16 C203.38,162.42 206.03,161.00 207.35,161.00 C208.67,161.00 210.25,160.40 210.86,159.67 C212.09,158.19 222.76,158.54 224.45,160.11 C224.97,160.60 226.32,161.00 227.45,161.00 C230.60,161.00 241.00,171.23 241.00,174.33 C241.00,175.74 241.45,177.16 242.00,177.50 C242.55,177.84 243.00,181.20 243.00,184.97 L 243.00 191.82 L 237.80 194.41 C234.95,195.83 232.02,197.00 231.30,197.00 C230.59,197.00 230.00,197.45 230.00,198.00 ZM 191.00 152.00 C192.95,154.71 194.12,154.53 197.50,151.00 C199.08,149.35 200.91,148.00 201.57,148.00 C202.73,148.00 205.87,146.53 209.00,144.53 C210.84,143.36 225.13,143.81 226.45,145.08 C226.97,145.59 228.41,146.00 229.64,146.00 C230.87,146.00 232.16,146.45 232.50,147.00 C232.84,147.55 233.99,148.00 235.06,148.00 C236.13,148.00 237.00,148.48 237.00,149.06 C237.00,149.64 237.45,149.84 238.00,149.50 C238.55,149.16 239.00,147.93 239.00,146.77 C239.00,144.33 241.69,141.00 243.65,141.00 C244.39,141.00 245.00,140.55 245.00,140.00 C245.00,139.40 241.17,139.00 235.50,139.00 C229.83,139.00 226.00,138.60 226.00,138.00 C226.00,137.45 224.68,137.00 223.06,137.00 C221.44,137.00 219.84,136.55 219.50,136.00 C219.16,135.45 217.40,135.00 215.60,135.00 C213.58,135.00 211.61,134.23 210.50,133.00 C209.50,131.90 208.04,131.00 207.24,131.00 C206.44,131.00 204.90,129.88 203.82,128.50 C202.74,127.12 201.19,126.00 200.38,126.00 C198.66,126.00 185.00,112.32 185.00,110.60 C185.00,109.96 184.10,108.79 183.00,108.00 C181.90,107.21 180.97,105.87 180.93,105.03 C180.81,102.61 177.49,97.53 175.81,97.20 C174.58,96.97 174.34,97.84 174.59,101.70 C174.75,104.34 174.91,107.06 174.94,107.75 C174.98,108.44 175.72,109.00 176.60,109.00 C177.48,109.00 179.73,110.69 181.60,112.75 C184.77,116.24 184.99,116.91 184.75,122.50 C184.51,128.17 184.36,128.50 182.00,128.50 C179.98,128.50 179.44,127.94 179.17,125.60 C178.83,122.65 176.94,120.00 175.17,120.00 C173.97,120.00 174.91,132.35 176.15,132.83 C176.62,133.02 177.00,134.48 177.00,136.08 C177.00,137.69 177.45,139.00 178.00,139.00 C178.55,139.00 179.00,139.77 179.00,140.71 C179.00,142.87 185.89,150.00 187.98,150.00 C188.85,150.00 190.21,150.90 191.00,152.00 ZM 410.50 208.42 C408.96,209.58 405.57,209.94 395.90,209.97 L 395.80 209.97 C387.28,209.99 384.20,210.00 382.26,208.52 C381.15,207.67 380.41,206.35 379.25,204.26 C377.58,201.27 377.54,180.86 379.20,179.20 C379.86,178.54 382.08,178.00 384.14,178.00 C386.20,178.00 388.16,177.55 388.50,177.00 C389.39,175.56 404.32,175.76 407.17,177.25 C412.15,179.85 415.00,182.79 415.00,185.33 C415.00,186.74 415.45,188.16 416.00,188.50 C416.55,188.84 417.00,191.76 417.00,194.99 C417.00,200.32 416.79,200.89 414.75,201.18 C413.05,201.42 412.50,202.16 412.50,204.20 C412.50,205.73 411.63,207.56 410.50,208.42 ZM 211.50 89.00 C212.41,90.47 222.27,90.30 221.77,88.82 C221.36,87.58 219.68,86.51 216.75,85.60 C215.79,85.31 215.00,84.15 215.00,83.03 C215.00,81.67 214.34,81.00 213.00,81.00 C211.67,81.00 211.00,80.33 211.00,79.00 C211.00,77.67 210.33,77.00 209.00,77.00 C207.76,77.00 207.00,76.33 207.00,75.24 C207.00,74.27 205.88,72.63 204.50,71.60 C203.12,70.56 202.00,69.02 202.00,68.16 C202.00,66.09 196.04,60.00 194.02,60.00 C193.15,60.00 191.79,59.10 191.00,58.00 C190.00,56.62 188.41,56.00 185.84,56.00 C183.79,56.00 181.84,55.55 181.50,55.00 C181.16,54.45 179.16,54.00 177.05,54.00 C174.56,54.00 173.01,53.47 172.64,52.50 C171.78,50.27 149.49,50.29 148.63,52.52 C148.22,53.59 147.29,53.86 145.52,53.42 C143.61,52.94 143.00,53.17 143.00,54.39 C143.00,55.33 143.83,56.00 145.00,56.00 C146.10,56.00 147.00,56.45 147.00,57.00 C147.00,57.55 148.32,58.00 149.94,58.00 C151.56,58.00 153.16,58.45 153.50,59.00 C153.84,59.55 155.44,60.00 157.06,60.00 C158.68,60.00 160.00,60.45 160.00,61.00 C160.00,61.55 160.80,62.00 161.78,62.00 C162.76,62.00 164.21,62.90 165.00,64.00 C165.79,65.10 167.15,66.00 168.02,66.00 C168.90,66.00 171.13,67.57 173.00,69.50 C174.87,71.43 176.92,73.00 177.57,73.00 C178.22,73.00 179.33,73.70 180.04,74.55 C180.75,75.40 183.20,76.95 185.50,78.00 C187.80,79.05 190.25,80.60 190.96,81.45 C191.67,82.30 193.36,83.00 194.73,83.00 C196.19,83.00 198.02,84.03 199.18,85.50 C200.80,87.56 202.01,88.00 206.01,88.00 C208.69,88.00 211.16,88.45 211.50,89.00 ZM 349.48 632.87 C347.94,634.31 343.60,634.59 327.91,634.26 L 313.32 633.95 L 310.48 630.97 C308.91,629.34 306.67,628.00 305.51,628.00 C304.34,628.00 301.95,626.52 300.20,624.70 C297.26,621.68 297.00,620.87 297.00,614.86 C297.00,609.58 297.39,607.96 299.00,606.50 C300.10,605.50 301.00,604.22 301.00,603.65 C301.00,603.08 302.18,601.38 303.63,599.87 C305.07,598.36 306.77,596.09 307.40,594.81 C308.46,592.69 309.29,592.48 317.53,592.21 C327.26,591.89 331.00,592.42 331.00,594.14 C331.00,594.74 332.35,596.77 334.00,598.65 C337.76,602.94 338.03,607.68 334.69,610.83 C332.59,612.79 331.30,613.00 321.01,613.00 C311.90,613.00 309.30,612.68 307.85,611.36 C305.47,609.21 303.00,611.08 303.00,615.05 C303.00,618.04 306.92,622.00 309.89,622.00 C310.78,622.00 312.77,623.34 314.31,624.97 L 317.12 627.95 L 332.70 628.22 C346.17,628.46 348.43,628.73 349.37,630.22 C350.08,631.34 350.11,632.27 349.48,632.87 ZM 482.07 628.42 C480.74,630.02 476.90,630.56 475.67,629.33 C475.30,628.97 475.00,626.44 475.00,623.73 C475.00,619.92 474.43,618.11 472.50,615.82 C470.17,613.05 470.00,612.11 470.00,601.98 C470.00,595.82 469.57,590.85 469.00,590.50 C468.45,590.16 468.00,586.36 468.00,582.06 C468.00,576.80 467.57,573.89 466.68,573.15 C465.86,572.47 458.71,571.94 447.93,571.77 L 430.50 571.50 L 430.50 566.50 L 447.50 566.25 C458.33,566.09 465.34,565.57 466.81,564.80 C468.61,563.86 469.55,563.86 471.05,564.80 C473.37,566.25 482.63,566.40 483.50,565.00 C483.84,564.45 485.81,564.00 487.88,564.00 C491.70,564.00 496.00,560.88 496.00,558.12 C496.00,557.32 497.15,556.98 499.25,557.19 C502.21,557.47 502.47,557.76 502.17,560.50 C501.68,564.89 496.40,570.00 492.36,570.00 C490.58,570.00 488.84,570.45 488.50,571.00 C488.16,571.55 484.98,572.00 481.44,572.00 L 475.00 572.00 L 475.00 578.94 C475.00,582.76 475.45,586.16 476.00,586.50 C476.58,586.86 477.00,592.13 477.00,598.90 C477.00,609.42 477.22,610.89 479.00,612.50 C480.42,613.78 481.00,615.58 481.00,618.67 C481.00,621.07 481.54,623.88 482.19,624.93 C483.12,626.43 483.10,627.18 482.07,628.42 ZM 198.25 489.20 C199.49,491.82 200.64,493.97 200.80,493.98 C202.37,494.07 210.06,489.56 212.13,487.33 C217.07,482.01 217.33,480.60 214.45,475.09 C213.02,472.36 211.21,469.59 210.43,468.94 C209.64,468.29 209.00,467.31 209.00,466.77 C209.00,466.23 207.85,464.42 206.45,462.75 C204.90,460.92 204.01,458.78 204.20,457.33 C204.42,455.60 203.81,454.59 202.00,453.70 C200.62,453.02 199.06,451.46 198.51,450.23 C197.97,449.00 197.18,448.00 196.76,448.00 C196.34,448.00 196.00,447.13 196.00,446.06 C196.00,444.99 195.55,443.84 195.00,443.50 C194.45,443.16 194.00,441.52 194.00,439.86 C194.00,438.14 193.53,436.99 192.92,437.19 C192.19,437.44 191.88,444.30 191.96,458.44 C192.07,477.87 192.21,479.45 194.04,481.03 C195.12,481.97 196.00,483.12 196.00,483.59 C196.00,484.06 197.01,486.58 198.25,489.20 ZM 284.56 635.56 C283.03,636.69 278.74,637.00 264.56,636.98 C254.63,636.98 246.04,636.64 245.48,636.23 C243.47,634.79 241.00,630.03 241.00,627.59 C241.00,626.23 240.55,624.84 240.00,624.50 C239.45,624.16 239.00,619.89 239.00,615.00 C239.00,610.11 238.55,605.84 238.00,605.50 C237.45,605.16 237.00,601.52 237.00,597.41 C237.00,592.68 236.48,589.11 235.59,587.71 C233.85,584.98 233.03,570.86 234.58,570.32 C235.18,570.11 236.86,570.89 238.33,572.05 C240.55,573.79 241.00,574.94 241.00,578.87 C241.00,581.47 241.42,584.03 241.92,584.55 C242.81,585.46 243.42,591.38 244.55,610.00 C245.04,618.22 245.44,619.78 248.75,626.73 L 250.29 629.95 L 267.29 630.23 C282.44,630.47 284.40,630.70 285.39,632.31 C286.28,633.76 286.11,634.40 284.56,635.56 ZM 269.69 130.20 C271.81,132.41 273.27,133.00 276.63,133.00 C281.91,133.00 282.65,131.96 279.47,128.97 C278.11,127.70 277.00,125.88 277.00,124.93 C277.00,121.89 271.04,111.76 267.45,108.69 C264.20,105.92 251.61,99.00 249.81,99.00 C248.02,99.00 249.24,100.98 254.06,105.86 C256.84,108.69 259.76,111.00 260.56,111.00 C261.35,111.00 262.00,111.62 262.00,112.38 C262.00,113.14 262.67,114.31 263.49,114.99 C264.31,115.67 264.75,116.59 264.48,117.03 C264.21,117.48 264.66,118.52 265.49,119.35 C266.32,120.18 267.00,122.33 267.00,124.12 C267.00,126.31 267.89,128.32 269.69,130.20 ZM 75.20 497.45 C76.89,499.37 81.42,499.41 82.98,497.52 C84.83,495.29 89.96,493.00 93.09,493.00 C94.63,493.00 96.16,492.55 96.50,492.00 C96.84,491.45 99.05,491.00 101.41,491.00 C105.53,491.00 111.34,488.88 112.54,486.94 C112.86,486.42 114.19,486.00 115.50,486.00 C116.81,486.00 118.16,485.55 118.50,485.00 C118.84,484.45 120.86,484.00 123.00,484.00 C125.14,484.00 127.16,483.55 127.50,483.00 C127.84,482.45 129.64,482.00 131.50,482.00 C133.36,482.00 135.16,481.55 135.50,481.00 C135.89,480.37 133.70,480.00 129.62,480.00 C126.04,480.00 122.84,480.45 122.50,481.00 C122.16,481.55 119.91,482.00 117.50,482.00 C115.09,482.00 112.84,482.45 112.50,483.00 C112.16,483.55 110.16,484.00 108.05,484.00 C105.56,484.00 104.01,484.53 103.64,485.50 C103.21,486.62 101.43,487.00 96.63,487.00 C92.31,487.00 88.92,487.63 86.34,488.91 C84.23,489.95 80.83,491.54 78.79,492.43 C74.29,494.40 73.49,495.52 75.20,497.45 ZM 370.75 524.52 C372.72,526.25 374.71,526.95 377.77,526.97 C381.39,527.00 382.22,526.61 383.20,524.46 C384.17,522.34 384.00,521.17 382.18,517.43 C380.47,513.91 380.00,511.14 380.00,504.52 C380.00,499.89 380.52,494.95 381.16,493.54 C382.62,490.33 381.98,489.68 378.64,490.95 C376.49,491.77 376.00,492.59 376.00,495.42 C376.00,497.32 375.55,499.16 375.00,499.50 C374.45,499.84 374.00,501.64 374.00,503.50 C374.00,505.36 374.45,507.16 375.00,507.50 C378.01,509.36 373.24,519.00 369.31,519.00 C367.09,519.00 367.86,521.97 370.75,524.52 ZM 240.65 521.17 C243.20,523.98 248.80,523.56 252.20,520.31 C255.74,516.92 255.71,515.91 251.99,513.80 C247.60,511.29 246.37,507.94 248.02,502.94 C249.08,499.74 249.11,498.19 248.18,495.62 C247.53,493.83 247.00,491.39 247.00,490.20 C247.00,488.82 245.92,487.50 244.00,486.50 C241.16,485.03 241.00,485.05 241.00,486.92 C241.00,488.00 241.45,489.16 242.00,489.50 C242.55,489.84 243.00,494.35 243.00,499.57 C243.00,504.77 242.55,509.92 242.00,511.01 L 240.00 514.99 C238.61,517.76 238.74,519.06 240.65,521.17 ZM 164.00 88.23 C164.00,89.27 164.45,89.84 165.00,89.50 C165.55,89.16 166.00,85.95 166.00,82.37 C166.00,75.67 164.74,73.00 161.57,73.00 C160.71,73.00 160.00,72.60 160.00,72.11 C160.00,71.63 158.43,70.48 156.50,69.57 C154.57,68.65 153.00,67.48 153.00,66.95 C153.00,66.43 151.68,66.00 150.06,66.00 C148.44,66.00 146.84,65.55 146.50,65.00 C146.16,64.45 144.81,64.00 143.50,64.00 C142.19,64.00 140.84,63.55 140.50,63.00 C139.85,61.95 136.00,61.58 136.00,62.57 C136.00,63.67 138.87,66.00 140.22,66.00 C140.97,66.00 143.57,68.03 146.00,70.50 C148.43,72.97 150.94,75.00 151.59,75.00 C152.23,75.00 153.35,75.72 154.09,76.60 C154.82,77.49 156.48,78.61 157.77,79.10 C159.06,79.59 159.88,80.38 159.59,80.85 C159.30,81.32 160.17,82.75 161.53,84.03 C162.89,85.30 164.00,87.20 164.00,88.23 ZM 451.36 187.50 C452.19,189.66 461.74,189.55 464.17,187.35 C466.48,185.25 466.50,184.00 464.22,184.00 C463.24,184.00 461.79,183.10 461.00,182.00 C460.21,180.90 459.00,180.00 458.31,180.00 C457.62,180.00 455.46,179.10 453.50,178.00 C451.54,176.90 449.08,176.00 448.03,176.00 C446.98,176.00 445.84,175.55 445.50,175.00 C445.16,174.45 442.77,174.01 440.19,174.02 L 435.50 174.03 L 441.72 180.02 C445.14,183.31 448.58,186.00 449.36,186.00 C450.15,186.00 451.05,186.68 451.36,187.50 ZM 274.31 491.75 C277.97,495.60 279.25,495.72 285.08,492.74 C289.68,490.38 291.25,489.61 291.44,488.59 C291.53,488.06 291.26,487.47 290.85,486.57 L 290.78 486.42 C289.66,483.97 289.41,483.91 279.79,484.08 C270.25,484.24 269.96,484.31 270.58,486.37 C270.93,487.54 272.61,489.96 274.31,491.75 ZM 308.03 606.25 C308.01,606.66 312.51,607.00 318.03,607.00 C326.50,607.00 328.16,606.74 328.71,605.32 C329.13,604.22 328.60,603.15 327.18,602.20 C325.98,601.41 325.00,600.14 325.00,599.38 C325.00,598.39 323.58,598.00 320.01,598.00 C315.54,598.00 314.67,598.38 311.54,601.75 C309.62,603.81 308.04,605.84 308.03,606.25 ZM 262.31 345.09 C262.92,347.42 263.77,347.46 267.90,345.40 C271.51,343.60 271.70,341.16 268.35,339.49 C267.17,338.90 265.52,337.84 264.66,337.13 C263.81,336.43 262.07,335.99 260.81,336.17 C257.66,336.62 256.87,341.89 259.83,342.67 C260.92,342.95 262.04,344.04 262.31,345.09 ZM 389.04 189.55 C389.83,190.50 391.54,190.98 393.41,190.80 C396.27,190.52 396.52,190.19 396.81,186.25 C397.09,182.29 395.94,180.67 394.50,183.00 C394.16,183.55 392.42,184.00 390.64,184.00 C387.56,184.00 385.00,185.45 385.00,187.20 C385.00,187.64 385.62,188.00 386.38,188.00 C387.14,188.00 388.33,188.70 389.04,189.55 ZM 211.09 172.59 C213.83,175.51 214.86,175.31 217.13,171.43 C220.63,165.47 219.11,163.60 213.17,166.56 C208.81,168.74 208.45,169.78 211.09,172.59 ZM 278.65 349.17 C280.39,351.09 286.00,351.72 286.00,350.00 C286.00,349.45 286.90,349.00 288.00,349.00 C289.10,349.00 290.00,348.55 290.00,348.00 C290.00,347.45 288.65,347.00 287.00,347.00 C285.35,347.00 284.00,346.55 284.00,346.00 C284.00,345.45 283.10,345.00 282.00,345.00 C280.90,345.00 280.00,344.55 280.00,344.00 C280.00,343.45 279.33,343.00 278.50,343.00 C276.48,343.00 276.57,346.87 278.65,349.17 ZM 325.70 353.46 C326.69,354.82 327.58,355.95 327.68,355.97 C327.90,356.01 331.00,349.82 331.00,349.35 C331.00,348.51 325.06,349.10 324.51,349.99 C324.17,350.54 324.70,352.10 325.70,353.46 ZM 306.57 354.08 C308.40,356.10 310.00,355.79 310.00,353.41 C310.00,351.67 307.57,350.53 305.98,351.51 C305.22,351.98 305.40,352.78 306.57,354.08 Z" fill="rgb(74,46,26)"/>
</g>
</svg>